<svg xmlns="http://www.w3.org/2000/svg" viewBox="0 0 228 300">
    <defs>
        <clipPath id="clipPath18">
            <path id="path16" d="M 0.06,224.977 H 170.079 V 0 H 0.06 Z"/>
        </clipPath>
    </defs>
    <g transform="matrix(1.3333333,0,0,-1.3333333,0,300)">
        <g>
            <g clip-path="url(#clipPath18)"><path
           id="path20"
           style="fill:#231f20;fill-opacity:1;fill-rule:nonzero;stroke:none"
           d="m 99.557,8.535 c 0.433,0.238 0.677,0.356 0.906,0.5 3.729,2.359 7.046,5.205 10.077,8.409 3.04,3.214 5.768,6.668 8.268,10.308 4.309,6.277 7.867,12.974 11.079,19.865 0.246,0.528 0.03,0.644 -0.41,0.781 -6.33,1.959 -12.769,3.47 -19.321,4.435 -4.418,0.651 -8.866,1.127 -13.313,1.546 -3.096,0.291 -6.212,0.423 -9.323,0.498 -4.726,0.116 -9.446,-0.088 -14.161,-0.469 -4.039,-0.327 -8.049,-0.85 -12.02,-1.647 -2.493,-0.501 -4.962,-1.122 -7.443,-1.684 -3.328,-0.752 -6.663,-1.471 -9.983,-2.26 -1.893,-0.449 -2.433,-1.742 -1.702,-3.607 1.421,-3.624 3.116,-7.145 5.147,-10.489 0.933,-1.538 1.706,-3.172 2.629,-4.717 2.32,-3.883 4.935,-7.558 7.866,-11.011 2.937,-3.458 6.204,-6.553 9.913,-9.173 0.542,-0.383 1.119,-0.715 1.783,-1.136 0.039,0.336 0.069,0.516 0.08,0.697 0.032,0.549 -0.009,1.112 0.1,1.644 0.167,0.815 0.631,0.969 1.32,0.524 0.232,-0.149 0.452,-0.324 0.699,-0.439 0.452,-0.211 0.586,-0.556 0.574,-1.029 C 72.3,9.276 72.304,8.469 72.323,7.663 72.327,7.466 72.371,7.16 72.497,7.093 73.213,6.711 73.96,6.387 74.673,6.054 c 0.103,0.158 0.143,0.192 0.146,0.229 0.06,0.653 0.11,1.307 0.174,1.96 0.103,1.049 0.409,1.257 1.403,0.966 C 76.559,9.161 76.721,9.103 76.887,9.076 77.479,8.975 77.694,8.618 77.665,8.039 77.638,7.489 77.657,6.937 77.653,6.385 77.642,5.013 77.645,5.031 78.975,4.73 c 0.555,-0.126 0.748,0.047 0.712,0.593 -0.055,0.845 -0.081,1.693 -0.132,2.539 -0.026,0.434 0.163,0.623 0.596,0.611 0.466,-0.014 0.933,-0.011 1.399,-0.002 0.472,0.008 0.688,-0.194 0.698,-0.686 0.02,-0.973 0.102,-1.946 0.12,-2.919 0.01,-0.505 0.188,-0.733 0.715,-0.721 1.06,0.022 2.121,0.021 3.181,0.001 0.543,-0.011 0.714,0.243 0.676,0.741 -0.05,0.655 -0.104,1.311 -0.115,1.966 -0.028,1.693 -0.019,1.693 1.655,1.954 0.742,0.115 0.963,-0.06 1.007,-0.819 0.036,-0.635 0.023,-1.275 0.096,-1.904 0.179,-1.542 0.188,-1.523 1.749,-1.085 0.467,0.131 0.623,0.376 0.569,0.824 -0.104,0.862 -0.166,1.732 -0.317,2.586 -0.112,0.628 0.057,0.927 0.699,1.079 1.829,0.429 1.861,0.422 2.057,-1.448 0.065,-0.621 0.161,-1.24 0.257,-1.97 0.712,0.301 1.306,0.568 1.913,0.805 0.456,0.179 0.645,0.475 0.624,0.975 -0.035,0.805 0.003,1.611 -0.018,2.417 -0.021,0.834 0.637,1.139 1.31,1.321 0.433,0.118 0.875,-0.324 1.047,-0.995 0.067,-0.263 0.071,-0.544 0.081,-0.818 0.012,-0.351 0.003,-0.702 0.003,-1.24 z M 84.606,-0.001 c -5.581,0.055 -10.754,1.58 -15.608,4.267 -4.399,2.435 -8.235,5.598 -11.689,9.226 -4.376,4.598 -8.055,9.724 -11.276,15.184 -1.129,1.914 -2.31,3.804 -3.327,5.777 -1.233,2.391 -2.335,4.851 -3.456,7.298 -0.413,0.903 -0.687,1.868 -1.086,2.78 -0.162,0.37 -0.42,0.775 -0.75,0.979 -0.754,0.465 -1.564,0.847 -2.377,1.206 -1.043,0.461 -2.155,0.518 -3.289,0.588 -1.962,0.12 -3.919,0.379 -5.869,0.643 -4.723,0.638 -9.433,1.386 -14.165,1.949 -3.025,0.359 -6.08,0.465 -9.121,0.688 -0.655,0.049 -1.308,0.116 -1.962,0.176 -0.428,0.039 -0.613,0.255 -0.624,0.707 -0.034,1.318 0.015,1.422 1.303,1.73 6.21,1.48 12.456,2.771 18.804,3.523 3.702,0.44 7.397,0.946 11.104,1.34 2.779,0.296 5.572,0.456 8.359,0.683 2.934,0.239 5.866,0.501 8.801,0.724 2.661,0.202 5.328,0.323 7.986,0.554 4.608,0.4 9.224,0.493 13.845,0.523 2.605,0.017 5.209,0.192 7.814,0.229 7.08,0.099 14.16,0.196 21.241,0.23 3.391,0.016 6.784,-0.095 10.109,-0.897 0.284,-0.069 0.588,-0.071 0.884,-0.079 3.261,-0.095 6.525,-0.149 9.786,-0.284 4.168,-0.175 8.331,-0.495 12.501,-0.606 5.637,-0.151 11.188,-0.949 16.711,-1.979 5.527,-1.032 10.956,-2.474 16.307,-4.202 1.03,-0.333 2.073,-0.622 3.1,-0.959 0.215,-0.07 0.39,-0.262 0.583,-0.398 -0.226,-0.12 -0.442,-0.316 -0.679,-0.346 -1.303,-0.161 -2.613,-0.266 -3.917,-0.418 -2.651,-0.308 -5.299,-0.633 -7.95,-0.953 -3.742,-0.45 -7.478,-0.971 -11.23,-1.332 -3.202,-0.308 -6.422,-0.42 -9.632,-0.655 -0.837,-0.062 -1.531,-0.259 -1.969,-1.236 -3.891,-8.695 -8.46,-17.008 -14.171,-24.66 -2.465,-3.301 -5.129,-6.432 -8.09,-9.3 C 107.903,9.109 103.853,5.976 99.225,3.654 95.612,1.841 91.806,0.633 87.776,0.199 86.725,0.085 85.663,0.064 84.606,-0.001" /><path
           id="path22"
           style="fill:#231f20;fill-opacity:1;fill-rule:nonzero;stroke:none"
           d="m 34.82,136.591 c 0.78,-0.55 1.369,-1.036 2.025,-1.404 0.563,-0.316 0.736,-0.715 0.73,-1.336 -0.027,-2.821 -0.007,-5.642 -0.021,-8.463 -0.002,-0.482 0.101,-0.706 0.65,-0.606 0.707,0.129 1.429,0.179 2.144,0.267 1.512,0.186 1.495,0.188 1.543,1.731 0.065,2.054 0.169,4.107 0.233,6.161 0.016,0.505 0.234,0.721 0.707,0.619 0.369,-0.08 0.727,-0.222 1.08,-0.363 1.117,-0.45 1.094,-0.48 1.019,-1.688 -0.11,-1.755 -0.153,-3.514 -0.24,-5.27 -0.027,-0.545 0.201,-0.697 0.724,-0.649 3.754,0.34 7.507,0.699 11.266,0.976 3.105,0.228 6.215,0.389 9.326,0.509 3.515,0.134 7.033,0.256 10.55,0.264 5.684,0.014 11.367,-0.061 17.049,-0.116 1.928,-0.02 3.857,-0.085 5.785,-0.143 1.058,-0.031 2.117,-0.068 3.173,-0.136 3.678,-0.236 7.356,-0.464 11.03,-0.738 3.253,-0.241 6.502,-0.528 9.75,-0.827 0.494,-0.045 0.64,0.087 0.653,0.559 0.063,2.351 0.175,4.702 0.21,7.053 0.011,0.657 0.228,1.044 0.838,1.235 0.161,0.051 0.323,0.109 0.472,0.189 0.955,0.514 1.308,0.336 1.514,-0.935 0.02,-0.125 0.013,-0.255 0.01,-0.381 -0.059,-2.501 -0.112,-5.001 -0.184,-7.501 -0.009,-0.345 0.049,-0.6 0.432,-0.644 0.884,-0.102 1.77,-0.177 2.652,-0.292 0.446,-0.058 0.542,0.134 0.546,0.533 0.031,2.798 0.084,5.596 0.117,8.395 0.018,1.419 0.005,1.419 1.374,1.791 1.566,0.425 1.598,0.376 1.547,-1.249 -0.096,-3.093 -0.152,-6.187 -0.234,-9.28 -0.012,-0.435 0.119,-0.651 0.596,-0.701 1.01,-0.107 2.015,-0.274 3.021,-0.424 0.692,-0.103 0.806,-0.03 0.797,0.66 -0.016,1.166 -0.071,2.331 -0.089,3.496 -0.039,2.586 -0.071,5.173 -0.084,7.76 -0.001,0.227 0.101,0.56 0.266,0.663 0.666,0.411 1.37,0.762 2.071,1.112 0.314,0.156 0.482,-0.016 0.514,-0.333 0.019,-0.19 0.016,-0.381 0.018,-0.572 0.045,-4.198 0.088,-8.396 0.132,-12.595 10e-4,-0.021 0.003,-0.043 0,-0.064 -0.046,-0.456 0.119,-0.697 0.615,-0.757 0.799,-0.094 1.591,-0.253 2.385,-0.388 0.713,-0.122 0.789,-0.077 0.817,0.626 0.084,2.181 0.18,4.361 0.229,6.542 0.067,3.01 0.106,6.021 0.138,9.031 0.014,1.403 0.193,1.156 -1.153,1.484 -5.1,1.244 -9.77,3.371 -13.868,6.679 -2.185,1.762 -4.058,3.795 -5.193,6.411 -0.176,0.404 -0.459,0.43 -0.815,0.436 -1.907,0.035 -3.814,0.084 -5.722,0.119 -2.65,0.048 -5.299,0.089 -7.949,0.131 -2.692,0.043 -5.383,0.094 -8.076,0.123 -4.685,0.052 -9.372,0.117 -14.057,0.125 -3.987,0.008 -7.973,-0.076 -11.96,-0.085 -9.991,-0.022 -19.982,-0.028 -29.973,-0.026 -0.537,0 -0.872,-0.153 -1.213,-0.601 -0.975,-1.278 -1.986,-2.537 -3.065,-3.729 -2.22,-2.45 -4.965,-4.218 -7.809,-5.847 -2.847,-1.629 -5.836,-2.831 -9.146,-3.064 -0.456,-0.032 -0.488,-0.288 -0.499,-0.637 -0.083,-2.605 -0.172,-5.21 -0.265,-7.815 -0.043,-1.207 -0.101,-2.413 -0.147,-3.619 -0.077,-1.969 -0.146,-3.937 -0.224,-5.906 -0.017,-0.444 0.148,-0.619 0.61,-0.53 1.291,0.249 2.584,0.485 3.88,0.707 0.406,0.069 0.583,0.265 0.591,0.678 0.019,1.038 0.087,2.075 0.093,3.114 0.022,3.394 0.023,6.788 0.036,10.182 0.002,0.263 0.036,0.527 0.067,0.95 0.837,-0.712 1.537,-1.342 2.276,-1.923 0.477,-0.375 0.567,-0.836 0.559,-1.399 -0.051,-3.456 -0.075,-6.913 -0.117,-10.369 -0.007,-0.499 0.235,-0.634 0.678,-0.564 0.523,0.082 1.045,0.189 1.572,0.233 0.592,0.05 0.831,0.29 0.832,0.923 0.009,3.517 0.059,7.033 0.098,10.551 0.003,0.245 0.031,0.49 0.063,0.951 z M 2.099,111.793 c 0.033,0.566 0.018,1.024 0.095,1.466 0.15,0.855 0.361,1.698 0.53,2.549 0.116,0.583 0.463,0.914 1.02,1.092 3.571,1.145 7.13,2.33 10.712,3.44 1.415,0.438 2.875,0.733 4.323,1.058 0.496,0.111 0.692,0.324 0.707,0.854 0.11,3.748 0.242,7.495 0.388,11.242 0.098,2.518 0.17,5.039 0.371,7.55 0.103,1.274 0.836,2.342 1.68,3.288 0.151,0.169 0.441,0.309 0.663,0.304 3.252,-0.071 6.066,1.217 8.803,2.775 2.605,1.481 5.161,3.036 7.226,5.249 1.877,2.011 3.693,4.08 5.569,6.092 0.224,0.24 0.654,0.402 0.989,0.402 1.779,-0.001 3.559,-0.082 5.339,-0.103 2.014,-0.023 4.029,0.002 6.044,-0.02 2.904,-0.032 5.808,-0.086 8.711,-0.132 2.459,-0.039 4.917,-0.079 7.376,-0.117 2.967,-0.046 5.934,-0.09 8.902,-0.136 2.628,-0.04 5.256,-0.085 7.885,-0.123 2.776,-0.039 5.552,-0.109 8.329,-0.102 8.397,0.022 16.795,0.07 25.192,0.124 0.605,0.004 1.12,-0.097 1.561,-0.534 0.75,-0.743 1.517,-1.467 2.276,-2.2 0.03,-0.029 0.053,-0.067 0.085,-0.094 1.376,-1.17 2.449,-2.625 3.691,-3.917 3.001,-3.123 6.742,-5.101 10.789,-6.516 1.677,-0.586 3.404,-1.029 5.091,-1.585 0.728,-0.24 1.365,-0.648 1.816,-1.327 0.41,-0.619 0.638,-1.216 0.591,-2.004 -0.119,-2.03 -0.112,-4.067 -0.157,-6.101 -0.085,-3.814 -0.174,-7.627 -0.253,-11.441 -0.02,-0.98 -0.007,-0.983 0.919,-1.159 6.338,-1.196 12.611,-2.66 18.786,-4.527 0.557,-0.168 0.978,-0.431 1.132,-0.99 0.28,-1.017 0.578,-2.033 0.763,-3.069 0.123,-0.692 -0.055,-0.781 -0.745,-0.577 -2.277,0.674 -4.529,1.455 -6.835,2.001 -4.928,1.168 -9.872,2.27 -14.831,3.291 -3.193,0.656 -6.415,1.176 -9.64,1.657 -3.498,0.522 -7.01,0.957 -10.522,1.376 -3.091,0.369 -6.188,0.695 -9.287,0.982 -2.467,0.228 -4.941,0.384 -7.413,0.546 -3.317,0.218 -6.635,0.415 -9.955,0.612 -1.056,0.062 -2.115,0.114 -3.174,0.139 -2.415,0.056 -4.831,0.1 -7.247,0.135 -3.285,0.049 -6.57,0.116 -9.856,0.116 -2.988,0.001 -5.978,-0.047 -8.965,-0.132 -3.113,-0.088 -6.226,-0.191 -9.333,-0.385 -4.67,-0.293 -9.342,-0.594 -14,-1.031 -8.189,-0.767 -16.337,-1.851 -24.409,-3.471 -6.121,-1.229 -12.153,-2.765 -17.989,-5.009 -1.028,-0.396 -2.03,-0.861 -3.045,-1.29 -0.187,-0.079 -0.383,-0.137 -0.698,-0.248" /><path
           id="path24"
           style="fill:#231f20;fill-opacity:1;fill-rule:nonzero;stroke:none"
           d="m 110.6,188.779 c 0.28,0.163 0.449,0.248 0.602,0.354 3.938,2.732 7.87,5.471 11.814,8.195 0.73,0.505 1.48,0.994 2.265,1.406 0.694,0.365 1.211,0.011 1.253,-0.775 0.009,-0.168 -0.007,-0.341 -0.042,-0.505 -0.957,-4.349 -1.928,-8.694 -2.874,-13.045 -0.581,-2.671 -1.138,-5.347 -1.68,-8.025 -0.229,-1.138 -0.777,-1.659 -1.93,-1.694 -2.903,-0.088 -5.806,-0.154 -8.707,-0.263 -1.461,-0.055 -2.365,0.433 -2.695,1.689 -0.048,0.181 -0.162,0.345 -0.248,0.515 -1.398,2.762 -2.8,5.522 -4.194,8.286 -1.642,3.256 -3.27,6.52 -4.914,9.774 -2.153,4.259 -4.323,8.51 -6.475,12.768 -2.19,4.335 -4.367,8.676 -6.553,13.013 -0.09,0.178 -0.214,0.338 -0.379,0.594 -0.727,-1.411 -1.408,-2.725 -2.083,-4.042 -2.004,-3.904 -4.002,-7.812 -6.011,-11.714 -1.631,-3.168 -3.267,-6.333 -4.918,-9.489 -0.231,-0.442 -0.216,-0.741 0.238,-0.993 0.202,-0.112 0.375,-0.276 0.562,-0.416 0.603,-0.446 1.207,-0.892 1.827,-1.351 0.119,0.178 0.184,0.261 0.233,0.352 2.876,5.388 5.743,10.78 8.638,16.157 0.243,0.452 0.623,0.863 1.023,1.192 0.625,0.513 1.301,0.353 1.73,-0.333 0.145,-0.233 0.261,-0.486 0.383,-0.733 3.332,-6.703 6.66,-13.408 9.995,-20.109 2.921,-5.867 5.86,-11.724 8.761,-17.601 0.279,-0.566 0.593,-0.757 1.208,-0.75 5.365,0.059 10.73,0.097 16.095,0.117 0.586,0.002 0.821,0.227 0.935,0.775 1.01,4.857 2.034,9.711 3.062,14.565 1.423,6.72 2.852,13.439 4.277,20.159 0.16,0.754 0.308,1.51 0.462,2.265 -0.335,-0.031 -0.535,-0.136 -0.715,-0.268 -4.679,-3.409 -9.354,-6.823 -14.032,-10.232 -2.587,-1.886 -5.182,-3.761 -7.761,-5.658 -0.191,-0.139 -0.443,-0.462 -0.395,-0.615 0.365,-1.167 0.797,-2.313 1.243,-3.565 z m -24.696,18.828 c -0.544,-1.006 -1.008,-1.854 -1.463,-2.706 -2.378,-4.45 -4.753,-8.902 -7.13,-13.352 -0.614,-1.152 -1.844,-1.413 -2.884,-0.622 -1.029,0.783 -2.062,1.56 -3.098,2.334 -0.169,0.127 -0.349,0.244 -0.538,0.337 -0.938,0.459 -1.136,0.994 -0.655,1.945 0.937,1.855 1.893,3.699 2.842,5.548 2.489,4.847 4.972,9.696 7.468,14.54 1.388,2.695 2.774,5.392 4.217,8.058 0.269,0.495 0.789,0.866 1.233,1.247 0.097,0.083 0.429,0.031 0.541,-0.076 0.208,-0.198 0.358,-0.469 0.491,-0.731 4.371,-8.648 8.738,-17.298 13.104,-25.948 2.407,-4.77 4.813,-9.54 7.219,-14.31 1.089,-2.157 2.184,-4.311 3.262,-6.474 0.193,-0.389 0.442,-0.577 0.886,-0.565 2.48,0.062 4.959,0.118 7.44,0.155 0.597,0.009 0.85,0.284 0.973,0.852 0.948,4.372 1.917,8.739 2.879,13.107 0.224,1.014 0.45,2.028 0.671,3.044 0.043,0.199 0.067,0.402 0.127,0.78 -0.345,-0.199 -0.558,-0.304 -0.753,-0.438 -3.595,-2.481 -7.175,-4.982 -10.792,-7.43 -0.536,-0.363 -1.226,-0.538 -1.871,-0.688 -0.604,-0.14 -1.058,0.149 -1.28,0.769 -0.678,1.897 -1.372,3.787 -2.052,5.683 -0.239,0.67 0.151,1.1 0.634,1.452 1.746,1.274 3.509,2.529 5.256,3.802 5.569,4.056 11.135,8.119 16.702,12.178 0.874,0.637 1.745,1.278 2.633,1.895 0.74,0.514 0.978,0.459 1.555,-0.211 1.518,-1.76 1.417,-1.197 0.913,-3.609 -0.891,-4.275 -1.835,-8.538 -2.738,-12.811 -1.143,-5.412 -2.263,-10.83 -3.401,-16.244 -0.585,-2.779 -1.174,-5.559 -1.786,-8.332 -0.336,-1.522 -0.755,-1.826 -2.334,-1.826 -5.536,-0.003 -11.072,-0.007 -16.607,-0.004 -0.508,0 -1.023,0.006 -1.519,0.096 -0.654,0.117 -1.143,0.481 -1.454,1.109 -3.08,6.188 -6.178,12.369 -9.262,18.556 -2.996,6.015 -5.981,12.035 -8.974,18.052 -0.111,0.224 -0.238,0.44 -0.455,0.838" /></g></g><path
       id="path26"
       style="fill:#231f20;fill-opacity:1;fill-rule:nonzero;stroke:none"
       d="m 65.305,177.439 c -0.383,-0.728 -0.692,-1.402 -1.079,-2.028 -0.415,-0.672 -1.023,-1.01 -1.861,-0.99 -2.947,0.07 -5.894,0.089 -8.84,0.148 -0.633,0.013 -1.263,0.13 -1.897,0.176 -0.732,0.053 -1.086,0.474 -1.226,1.156 -0.323,1.578 -0.662,3.153 -0.988,4.731 -0.991,4.796 -1.982,9.592 -2.966,14.389 -0.184,0.892 -0.375,1.786 -0.49,2.688 -0.099,0.778 0.292,1.431 0.878,1.87 0.593,0.444 1.152,0.072 1.675,-0.305 1.839,-1.328 3.691,-2.64 5.536,-3.959 5.192,-3.712 10.387,-7.419 15.575,-11.137 5.464,-3.916 10.922,-7.839 16.377,-11.767 0.352,-0.254 0.603,-0.236 0.952,0.034 2.162,1.675 4.343,3.326 6.521,4.981 1.203,0.915 1.206,0.911 0.337,2.154 -0.024,0.036 -0.05,0.069 -0.071,0.106 -0.181,0.326 -0.412,0.307 -0.682,0.11 -1.906,-1.382 -3.818,-2.752 -5.714,-4.145 -0.562,-0.413 -1.116,-0.5 -1.699,-0.1 -0.505,0.347 -0.976,0.747 -1.458,1.128 -4.754,3.761 -9.512,7.52 -14.262,11.286 -4.651,3.687 -9.293,7.386 -13.943,11.074 -5.05,4.005 -10.105,8.003 -15.16,12.001 -0.453,0.359 -0.923,0.699 -1.385,1.047 -0.083,-0.038 -0.165,-0.077 -0.247,-0.115 0.091,-0.715 0.146,-1.436 0.277,-2.142 1.107,-5.96 2.176,-11.927 3.357,-17.873 1.363,-6.862 2.826,-13.704 4.248,-20.555 0.187,-0.899 0.202,-0.925 1.132,-0.901 2.606,0.066 5.211,0.164 7.817,0.224 2.755,0.064 5.511,0.109 8.267,0.138 0.499,0.005 0.775,0.193 0.967,0.642 0.415,0.975 0.865,1.936 1.304,2.901 0.717,1.576 0.718,1.576 -0.692,2.62 -0.167,0.124 -0.335,0.247 -0.56,0.413 z m -16.773,18.937 c 0.24,-1.173 0.439,-2.142 0.638,-3.111 1.06,-5.149 2.13,-10.297 3.169,-15.45 0.13,-0.643 0.405,-0.856 1.06,-0.863 2.882,-0.035 5.763,-0.13 8.645,-0.175 0.192,-0.003 0.487,0.192 0.563,0.368 0.345,0.795 0.655,1.608 0.926,2.432 0.273,0.834 1.012,1.208 1.738,0.707 1.342,-0.927 2.649,-1.909 3.924,-2.927 0.698,-0.558 0.536,-1.343 0.238,-2.052 -0.544,-1.29 -1.132,-2.56 -1.705,-3.837 -0.226,-0.503 -0.473,-0.996 -0.686,-1.504 -0.358,-0.853 -1.051,-1.179 -1.908,-1.249 -0.338,-0.028 -0.679,-0.01 -1.018,-0.015 -3.074,-0.049 -6.149,-0.087 -9.222,-0.153 -2.607,-0.056 -5.212,-0.147 -7.817,-0.221 -1.111,-0.032 -1.591,0.337 -1.886,1.561 -0.283,1.174 -0.509,2.363 -0.754,3.547 -1.148,5.522 -2.163,11.077 -3.475,16.559 -1.344,5.615 -2.183,11.316 -3.306,16.968 -0.363,1.829 -0.69,3.666 -1.021,5.502 -0.115,0.64 -0.18,1.289 -0.292,1.929 -0.098,0.551 -0.11,1.072 0.404,1.43 0.533,0.373 1.051,0.218 1.536,-0.12 1.373,-0.96 2.786,-1.869 4.104,-2.9 3.004,-2.348 5.956,-4.764 8.939,-7.14 3.365,-2.682 6.74,-5.352 10.112,-8.026 5.05,-4.004 10.1,-8.007 15.151,-12.011 3.107,-2.463 6.217,-4.921 9.316,-7.393 0.343,-0.274 0.603,-0.263 0.952,-0.012 1.875,1.349 3.765,2.68 5.653,4.013 0.259,0.183 0.525,0.363 0.807,0.505 0.601,0.301 1.188,0.121 1.537,-0.445 0.725,-1.172 1.446,-2.346 2.173,-3.516 0.393,-0.633 0.278,-1.328 -0.342,-1.801 -2.513,-1.914 -5.033,-3.82 -7.549,-5.73 -0.608,-0.461 -1.217,-0.921 -1.819,-1.391 -0.531,-0.415 -1.061,-0.375 -1.582,-0.005 -4.592,3.27 -9.184,6.543 -13.774,9.818 -3.849,2.746 -7.698,5.494 -11.543,8.246 -3.637,2.605 -7.267,5.219 -10.903,7.826 -0.263,0.188 -0.543,0.353 -0.983,0.636" /><path
       id="path28"
       style="fill:#231f20;fill-opacity:1;fill-rule:nonzero;stroke:none"
       d="m 40.362,103.847 c 0.05,-0.007 0.1,-0.014 0.15,-0.021 0.038,-0.138 0.089,-0.274 0.111,-0.416 0.464,-3.036 0.93,-6.073 1.386,-9.111 0.668,-4.442 1.322,-8.886 1.995,-13.326 0.171,-1.124 0.193,-1.121 -0.901,-1.297 -0.21,-0.034 -0.422,-0.047 -0.629,-0.094 -1.151,-0.259 -2.338,-0.425 -3.44,-0.824 -0.873,-0.316 -1.185,-1.16 -1.048,-2.035 0.144,-0.921 0.71,-1.559 1.632,-1.715 0.493,-0.083 1.018,-0.098 1.513,-0.029 2.54,0.348 5.078,0.713 7.61,1.119 0.957,0.153 1.923,0.349 2.831,0.678 0.97,0.352 1.262,1.081 1.12,2.232 -0.099,0.806 -0.702,1.485 -1.579,1.595 -0.661,0.082 -1.35,0.051 -2.015,-0.03 -0.526,-0.065 -0.665,0.134 -0.728,0.597 -0.196,1.448 -0.422,2.893 -0.639,4.339 -0.687,4.568 -1.375,9.135 -2.063,13.702 -0.36,2.389 -0.71,4.779 -1.086,7.164 -0.079,0.504 0.096,0.737 0.572,0.87 0.486,0.136 0.98,0.296 1.418,0.541 0.802,0.449 1.103,1.341 0.862,2.324 -0.203,0.827 -0.837,1.384 -1.735,1.424 -0.654,0.028 -1.318,0.008 -1.965,-0.078 -1.785,-0.237 -3.56,-0.56 -5.348,-0.766 -0.628,-0.072 -0.853,-0.329 -1.008,-0.898 -1.798,-6.606 -3.62,-13.207 -5.437,-19.808 -0.092,-0.334 -0.193,-0.665 -0.327,-1.128 -0.194,0.247 -0.302,0.365 -0.388,0.498 -3.83,5.931 -7.664,11.858 -11.475,17.801 -0.311,0.485 -0.621,0.639 -1.187,0.543 -1.441,-0.246 -2.896,-0.405 -4.338,-0.642 -0.939,-0.153 -1.885,-0.317 -2.79,-0.597 -0.923,-0.285 -1.402,-1.116 -1.333,-2.015 0.084,-1.069 0.605,-1.737 1.612,-1.935 0.513,-0.1 1.054,-0.101 1.579,-0.086 0.398,0.012 0.567,-0.107 0.624,-0.512 0.275,-1.93 0.578,-3.856 0.866,-5.784 0.541,-3.626 1.074,-7.252 1.616,-10.877 0.436,-2.914 0.874,-5.826 1.327,-8.737 0.077,-0.489 -0.071,-0.677 -0.567,-0.751 -0.601,-0.091 -1.21,-0.233 -1.772,-0.461 -0.835,-0.338 -1.271,-1.145 -1.181,-1.982 0.111,-1.036 0.64,-1.695 1.602,-1.872 0.471,-0.087 0.976,-0.111 1.45,-0.046 2.247,0.304 4.492,0.624 6.729,0.991 1.269,0.209 2.551,0.426 3.771,0.814 1.005,0.321 1.388,1.192 1.198,2.117 -0.234,1.138 -0.893,1.773 -2.013,1.72 -1.351,-0.063 -2.701,-0.216 -4.039,-0.416 -0.632,-0.094 -0.816,0.102 -0.901,0.687 -0.571,3.942 -1.166,7.882 -1.758,11.821 -0.539,3.583 -1.085,7.166 -1.621,10.749 -0.027,0.182 -0.004,0.372 -0.004,0.558 0.227,-0.108 0.325,-0.217 0.403,-0.339 1.07,-1.656 2.136,-3.314 3.204,-4.971 2.629,-4.08 5.264,-8.158 7.881,-12.247 0.247,-0.386 0.504,-0.481 0.945,-0.394 0.893,0.176 1.795,0.347 2.701,0.408 0.654,0.043 0.919,0.335 1.08,0.923 1.452,5.316 2.923,10.628 4.39,15.94 0.377,1.362 0.758,2.724 1.137,4.085 z M 30.885,93.672 c 0.591,2.155 1.146,4.176 1.702,6.196 1.102,4.006 2.196,8.014 3.326,12.012 0.066,0.232 0.402,0.511 0.647,0.549 2.596,0.404 5.195,0.793 7.802,1.122 1.374,0.172 2.691,0 3.832,-0.95 1.684,-1.402 2.14,-5.066 -0.715,-6.6 -0.559,-0.3 -0.731,-0.602 -0.628,-1.237 0.502,-3.096 0.955,-6.199 1.42,-9.302 0.594,-3.961 1.192,-7.921 1.764,-11.885 0.089,-0.613 0.265,-0.909 0.975,-0.925 1.799,-0.042 3.262,-1.393 3.662,-3.246 0.382,-1.773 -0.368,-3.582 -2.022,-4.316 -1.083,-0.48 -2.293,-0.724 -3.472,-0.93 -2.483,-0.434 -4.977,-0.826 -7.48,-1.13 -1.402,-0.171 -2.83,-0.25 -4.1,0.674 -2.257,1.646 -2.231,5.231 0.176,6.639 0.939,0.55 2.09,0.778 3.173,1.026 0.871,0.201 0.919,0.12 0.795,1.023 -0.233,1.7 -0.502,3.395 -0.758,5.093 -0.347,2.3 -0.696,4.599 -1.141,6.913 -0.376,-1.334 -0.755,-2.666 -1.126,-4.001 -0.794,-2.861 -1.591,-5.72 -2.367,-8.585 -0.112,-0.416 -0.345,-0.601 -0.741,-0.658 -1.866,-0.271 -3.734,-0.534 -5.596,-0.828 -0.418,-0.066 -0.665,0.038 -0.892,0.394 -1.436,2.253 -2.89,4.493 -4.339,6.737 -0.84,1.3 -1.682,2.599 -2.526,3.897 -0.065,0.099 -0.151,0.184 -0.341,0.235 0.144,-0.995 0.283,-1.99 0.433,-2.984 0.452,-3.018 0.918,-6.033 1.354,-9.054 0.083,-0.58 0.321,-0.702 0.89,-0.655 1.089,0.09 2.214,0.228 3.275,0.053 1.786,-0.297 2.993,-1.817 3.096,-3.56 0.117,-1.989 -0.826,-3.611 -2.648,-4.161 -1.391,-0.419 -2.848,-0.651 -4.292,-0.854 -2.619,-0.369 -5.248,-0.674 -7.878,-0.957 -0.462,-0.049 -0.982,0.07 -1.421,0.245 -1.677,0.669 -2.522,2.049 -2.505,3.966 0.014,1.659 0.936,3.003 2.614,3.619 0.6,0.222 0.681,0.486 0.591,1.07 -0.905,5.843 -1.778,11.691 -2.656,17.538 -0.195,1.299 -0.381,2.599 -0.563,3.9 -0.059,0.425 -0.229,0.656 -0.704,0.74 -1.882,0.337 -3.155,1.701 -3.352,3.431 -0.273,2.402 0.919,3.872 2.628,4.395 1.488,0.456 3.055,0.662 4.596,0.93 1.399,0.243 2.81,0.412 4.212,0.634 0.501,0.079 0.828,-0.063 1.112,-0.505 3.241,-5.049 6.5,-10.088 9.755,-15.128 0.103,-0.158 0.226,-0.303 0.433,-0.58" /><path
       id="path30"
       style="fill:#231f20;fill-opacity:1;fill-rule:nonzero;stroke:none"
       d="m 85.155,83.99 c -0.171,0.372 -0.262,0.551 -0.337,0.737 -1.536,3.815 -3.074,7.631 -4.605,11.449 -1.469,3.661 -2.933,7.323 -4.395,10.987 -0.247,0.622 -0.198,0.692 0.472,0.697 0.827,0.006 1.656,-0.029 2.481,0.008 0.501,0.023 1.022,0.076 1.489,0.243 0.768,0.273 1.146,1.035 1.06,1.904 -0.087,0.879 -0.543,1.474 -1.358,1.63 -0.706,0.136 -1.427,0.241 -2.143,0.252 -2.63,0.038 -5.261,0.033 -7.891,0.041 -0.297,10e-4 -0.598,0 -0.889,-0.048 -1.114,-0.181 -1.695,-0.87 -1.683,-1.964 0.012,-1.036 0.624,-1.737 1.69,-1.896 0.502,-0.076 1.011,-0.13 1.517,-0.141 0.393,-0.008 0.625,-0.139 0.765,-0.518 0.288,-0.774 0.612,-1.535 0.921,-2.302 2.272,-5.645 4.545,-11.29 6.815,-16.936 1.154,-2.873 2.302,-5.749 3.453,-8.623 0.158,-0.392 0.278,-0.799 0.842,-0.805 1.081,-0.01 2.162,-0.039 3.24,-0.107 0.544,-0.034 0.803,0.202 0.999,0.671 0.637,1.525 1.303,3.039 1.96,4.557 3.27,7.549 6.55,15.094 9.793,22.655 0.305,0.711 0.62,1.153 1.463,1.04 0.349,-0.046 0.716,0.058 1.075,0.092 0.959,0.086 1.668,0.795 1.723,1.723 0.067,1.104 -0.45,1.841 -1.469,2.053 -0.392,0.082 -0.795,0.145 -1.196,0.152 -2.819,0.054 -5.638,0.094 -8.458,0.13 -0.359,0.005 -0.725,-0.001 -1.077,-0.068 -1.144,-0.218 -1.744,-0.892 -1.761,-1.925 -0.015,-1.016 0.582,-1.748 1.76,-1.906 1.044,-0.142 2.111,-0.109 3.168,-0.162 0.236,-0.013 0.472,-0.065 0.812,-0.114 C 91.975,99.652 88.604,91.911 85.155,83.99 Z m -6.825,21.891 c 2.296,-5.715 4.549,-11.324 6.872,-17.106 2.495,5.734 4.914,11.295 7.387,16.979 -0.408,0.028 -0.652,0.045 -0.895,0.06 -3.138,0.192 -4.865,3.176 -3.376,5.824 0.523,0.928 1.317,1.531 2.344,1.692 1.061,0.167 2.147,0.235 3.222,0.238 2.097,0.006 4.196,-0.045 6.294,-0.111 0.8,-0.026 1.609,-0.104 2.395,-0.255 1.792,-0.345 2.999,-1.891 2.956,-3.699 -0.045,-1.88 -1.272,-3.468 -3.069,-3.668 -1.095,-0.121 -1.61,-0.555 -2.029,-1.562 -1.877,-4.498 -3.859,-8.953 -5.796,-13.427 -1.947,-4.493 -3.891,-8.988 -5.822,-13.487 -0.188,-0.442 -0.461,-0.589 -0.925,-0.583 -1.866,0.024 -3.733,0.036 -5.599,0.013 -0.542,-0.006 -0.785,0.223 -0.973,0.699 -1.642,4.137 -3.301,8.267 -4.961,12.397 -2.095,5.212 -4.201,10.419 -6.287,15.634 -0.159,0.397 -0.388,0.528 -0.796,0.574 -2.189,0.242 -3.418,1.34 -3.778,3.323 -0.303,1.671 0.688,3.458 2.282,4.039 0.494,0.18 1.028,0.363 1.54,0.356 3.516,-0.044 7.034,-0.073 10.545,-0.248 1.464,-0.072 2.601,-0.92 3.105,-2.372 0.486,-1.4 0.274,-2.723 -0.675,-3.887 -0.838,-1.026 -2.033,-1.227 -3.252,-1.353 -0.186,-0.019 -0.373,-0.037 -0.709,-0.07" /><path
       id="path32"
       style="fill:#231f20;fill-opacity:1;fill-rule:nonzero;stroke:none"
       d="m 153.281,99.139 c -0.035,2.832 -1.662,5.583 -4.469,7.68 -2.119,1.582 -4.611,2.187 -7.177,2.541 -3.359,0.464 -6.717,0.928 -10.078,1.371 -1.617,0.212 -3.235,0.44 -4.86,0.537 -1.259,0.075 -2.007,-0.63 -2.162,-1.777 -0.14,-1.037 0.423,-1.871 1.59,-2.199 0.751,-0.211 1.533,-0.329 2.308,-0.426 0.849,-0.108 0.885,-0.117 0.771,-0.978 -0.389,-2.92 -0.771,-5.84 -1.17,-8.758 -0.695,-5.102 -1.4,-10.203 -2.101,-15.303 -0.148,-1.076 -0.144,-1.062 -1.227,-0.932 -0.775,0.093 -1.56,0.215 -2.336,0.19 -1.064,-0.033 -1.789,-0.739 -1.918,-1.704 -0.141,-1.05 0.289,-1.777 1.338,-2.169 0.453,-0.17 0.932,-0.302 1.411,-0.37 4.302,-0.601 8.604,-1.2 12.911,-1.759 0.808,-0.105 1.654,-0.125 2.456,-0.009 0.888,0.127 1.391,0.832 1.444,1.697 0.063,1.053 -0.275,1.645 -1.19,2.013 -0.35,0.14 -0.72,0.263 -1.092,0.319 -2.327,0.344 -4.654,0.687 -6.987,0.98 -0.574,0.073 -0.726,0.313 -0.654,0.825 0.315,2.288 0.632,4.575 0.934,6.865 0.068,0.512 0.304,0.672 0.816,0.595 1.949,-0.289 3.899,-0.577 5.855,-0.808 1.218,-0.144 2.449,-0.272 3.672,-0.254 2.209,0.034 4.224,0.795 6.156,1.833 3.698,1.986 5.739,4.979 5.759,10 z M 123.02,83.046 c 1.088,0.003 1.096,0.002 1.242,1.072 0.883,6.465 1.765,12.93 2.642,19.396 0.195,1.437 0.185,1.437 -1.22,1.852 -2.358,0.695 -3.461,2.49 -2.984,4.851 0.345,1.702 1.799,3 3.564,2.981 1.455,-0.016 2.915,-0.176 4.361,-0.364 4.013,-0.525 8.021,-1.077 12.026,-1.659 2.719,-0.394 5.287,-1.226 7.506,-2.919 2.768,-2.112 4.546,-4.842 4.981,-8.334 0.469,-3.785 -0.485,-7.203 -3.187,-9.931 -2.416,-2.44 -5.443,-3.901 -8.826,-4.482 -2.492,-0.429 -4.984,-0.019 -7.459,0.366 -0.733,0.114 -1.47,0.197 -2.201,0.316 -0.484,0.078 -0.716,-0.117 -0.775,-0.588 -0.129,-1.03 -0.262,-2.06 -0.403,-3.088 -0.067,-0.489 0.15,-0.684 0.624,-0.743 1.555,-0.195 3.109,-0.403 4.659,-0.636 1.32,-0.198 2.547,-0.59 3.514,-1.606 1.515,-1.591 1.211,-5.515 -1.87,-6.348 -1.387,-0.375 -2.739,-0.113 -4.099,0.068 -4.011,0.535 -8.021,1.072 -12.026,1.649 -0.81,0.117 -1.638,0.314 -2.378,0.65 -1.712,0.775 -2.515,2.485 -2.144,4.303 0.386,1.893 1.777,3.079 3.753,3.192 0.233,0.014 0.467,0.002 0.7,0.002" /><path
       id="path34"
       style="fill:#231f20;fill-opacity:1;fill-rule:nonzero;stroke:none"
       d="m 78.863,134.222 c 0.127,0.444 0.264,1.043 0.469,1.617 0.313,0.878 0.643,1.752 1.026,2.601 0.197,0.436 0.124,0.69 -0.246,0.964 -1.075,0.792 -2.127,1.613 -3.193,2.417 -0.477,0.359 -0.917,0.757 -0.742,1.419 0.176,0.664 0.694,1.036 1.354,1.074 0.905,0.053 1.82,0.057 2.724,-0.007 1.056,-0.076 1.046,-0.114 1.473,0.823 0.553,1.215 1.118,2.425 1.682,3.635 0.098,0.21 0.208,0.418 0.332,0.614 0.628,0.997 1.432,0.997 1.945,-0.074 0.723,-1.509 1.369,-3.055 2.01,-4.601 0.162,-0.39 0.357,-0.566 0.786,-0.571 1.397,-0.019 2.794,-0.051 4.189,-0.124 0.321,-0.017 0.876,-0.182 0.9,-0.343 0.063,-0.415 0.02,-0.967 -0.221,-1.278 -0.351,-0.452 -0.908,-0.747 -1.384,-1.098 -0.802,-0.59 -1.6,-1.188 -2.42,-1.752 -0.389,-0.267 -0.469,-0.52 -0.342,-0.999 0.46,-1.736 0.859,-3.489 1.244,-5.245 0.061,-0.275 0.019,-0.768 -0.139,-0.851 -0.273,-0.143 -0.734,-0.164 -1.009,-0.025 -0.56,0.285 -1.057,0.697 -1.562,1.08 -0.877,0.667 -1.75,1.34 -2.604,2.036 -0.378,0.307 -0.668,0.293 -1.057,-0.007 -1.04,-0.802 -2.114,-1.559 -3.177,-2.332 -0.154,-0.112 -0.309,-0.227 -0.477,-0.315 -0.826,-0.432 -1.404,-0.122 -1.507,0.803 -0.014,0.126 -0.025,0.253 -0.054,0.539" /><path
       id="path36"
       style="fill:#231f20;fill-opacity:1;fill-rule:nonzero;stroke:none"
       d="m 104.437,144.406 c 0.931,0 1.862,0.01 2.792,-0.005 0.42,-0.008 0.589,0.16 0.765,0.565 0.673,1.552 1.363,3.104 2.173,4.588 0.527,0.967 1.407,0.852 1.891,-0.178 0.559,-1.189 1.084,-2.393 1.597,-3.602 0.638,-1.504 0.625,-1.494 2.236,-1.513 1.123,-0.014 2.243,-0.073 3.364,-0.119 0.57,-0.023 0.906,-0.363 0.749,-0.903 -0.114,-0.392 -0.381,-0.809 -0.701,-1.061 -1.148,-0.904 -2.339,-1.753 -3.531,-2.6 -0.338,-0.24 -0.353,-0.463 -0.252,-0.853 0.454,-1.741 0.869,-3.493 1.255,-5.25 0.063,-0.287 -0.009,-0.844 -0.147,-0.889 -0.339,-0.112 -0.831,-0.128 -1.119,0.049 -0.773,0.476 -1.472,1.069 -2.197,1.622 -0.623,0.476 -1.249,0.948 -1.855,1.445 -0.333,0.272 -0.618,0.285 -0.965,0.024 -1.033,-0.776 -2.078,-1.538 -3.123,-2.297 -0.497,-0.362 -0.999,-0.787 -1.671,-0.466 -0.405,0.193 -0.577,1.092 -0.332,1.824 0.423,1.265 0.862,2.526 1.351,3.766 0.184,0.469 0.09,0.741 -0.286,1.023 -1.07,0.8 -2.12,1.625 -3.184,2.43 -0.486,0.368 -0.863,0.801 -0.667,1.447 0.194,0.641 0.737,0.893 1.351,1.007 0.166,0.031 0.336,0.038 0.504,0.056 0,-0.037 0.001,-0.074 0.002,-0.11" /><path
       id="path38"
       style="fill:#231f20;fill-opacity:1;fill-rule:nonzero;stroke:none"
       d="m 52.965,144.171 c 1.837,-0.033 1.824,-0.028 2.545,1.671 0.48,1.131 0.979,2.256 1.509,3.363 0.517,1.079 1.335,1.14 1.901,0.086 0.74,-1.379 1.411,-2.802 2.006,-4.25 0.271,-0.659 0.655,-0.785 1.265,-0.746 0.824,0.052 1.65,0.068 2.475,0.081 0.23,0.004 0.516,0.017 0.681,-0.104 0.371,-0.276 0.865,-0.585 0.963,-0.969 0.086,-0.338 -0.192,-0.917 -0.494,-1.178 -1.071,-0.928 -2.21,-1.779 -3.346,-2.63 -0.338,-0.252 -0.378,-0.462 -0.227,-0.849 0.48,-1.222 0.926,-2.458 1.344,-3.702 0.109,-0.325 0.126,-0.707 0.085,-1.05 -0.124,-1.029 -0.762,-1.291 -1.63,-0.675 -1.09,0.772 -2.19,1.533 -3.228,2.37 -0.557,0.449 -0.937,0.412 -1.468,-0.028 -1.142,-0.945 -2.335,-1.828 -3.515,-2.727 -0.181,-0.138 -0.39,-0.265 -0.606,-0.326 -0.627,-0.178 -1.026,0.152 -0.89,0.789 0.385,1.802 0.792,3.599 1.247,5.384 0.116,0.453 0.047,0.712 -0.316,0.968 -1.038,0.733 -2.067,1.479 -3.092,2.232 -0.271,0.199 -0.602,0.396 -0.741,0.676 -0.164,0.328 -0.257,0.773 -0.167,1.111 0.048,0.179 0.543,0.307 0.848,0.336 0.948,0.087 1.9,0.116 2.851,0.167" /><path
       id="path40"
       style="fill:#231f20;fill-opacity:1;fill-rule:nonzero;stroke:none"
       d="m 139.57,93.603 c 2.922,-0.005 3.974,0.258 5.371,1.133 2.423,1.516 2.867,4.15 1.047,6.29 -0.799,0.937 -1.854,1.528 -3.033,1.744 -2.308,0.423 -4.641,0.705 -6.957,1.086 -0.618,0.101 -0.848,-0.098 -0.916,-0.687 -0.138,-1.176 -0.316,-2.348 -0.477,-3.522 -0.214,-1.572 -0.425,-3.146 -0.639,-4.718 -0.043,-0.319 -0.035,-0.605 0.382,-0.658 2.013,-0.257 4.026,-0.515 5.222,-0.668 z m 0.464,-2.044 c -1.477,0.191 -3.326,0.429 -5.175,0.671 -0.84,0.11 -1.676,0.253 -2.519,0.335 -0.462,0.045 -0.642,0.22 -0.577,0.687 0.53,3.841 1.042,7.685 1.578,11.525 0.197,1.409 0.219,1.4 1.645,1.192 2.641,-0.384 5.296,-0.69 7.922,-1.162 2.016,-0.362 3.757,-1.334 4.988,-3.036 2.012,-2.778 1.33,-6.396 -1.54,-8.451 -1.785,-1.278 -3.809,-1.688 -6.322,-1.761" /><path
       id="path42"
       style="fill:#231f20;fill-opacity:1;fill-rule:nonzero;stroke:none"
       d="M 59.494,44.009 58.721,38.55 h 1.547 z m -1.097,-7.492 -0.508,-3.183 h -2.174 l 2.354,13.847 h 2.873 l 2.321,-13.847 h -2.197 l -0.489,3.183 h -2.18" /><path
       id="path44"
       style="fill:#231f20;fill-opacity:1;fill-rule:nonzero;stroke:none"
       d="m 66.726,37.727 v -4.393 h -2.089 v 13.858 h 2.089 v -4.94 l 2.552,4.94 h 2.227 l -2.859,-5.653 3.352,-8.205 H 69.543 L 67.35,38.96 66.726,37.727" /><path
       id="path46"
       style="fill:#231f20;fill-opacity:1;fill-rule:nonzero;stroke:none"
       d="M 76.792,44.009 76.019,38.55 h 1.547 z m -1.097,-7.492 -0.507,-3.183 h -2.175 l 2.354,13.847 h 2.873 l 2.321,-13.847 h -2.196 l -0.489,3.183 h -2.181" /><path
       id="path48"
       style="fill:#231f20;fill-opacity:1;fill-rule:nonzero;stroke:none"
       d="m 84.406,35.401 h 1.26 c 0.332,0 0.611,0.12 0.84,0.359 0.228,0.239 0.342,0.522 0.342,0.846 v 7.249 c 0,0.331 -0.116,0.615 -0.347,0.85 -0.233,0.237 -0.511,0.354 -0.835,0.354 h -1.26 z m 4.476,1.249 c 0,-0.914 -0.321,-1.695 -0.961,-2.343 C 87.279,33.659 86.506,33.334 85.6,33.334 H 82.318 V 47.192 H 85.6 c 0.914,0 1.689,-0.324 2.326,-0.972 0.637,-0.648 0.956,-1.426 0.956,-2.332 V 36.65" /><path
       id="path50"
       style="fill:#231f20;fill-opacity:1;fill-rule:nonzero;stroke:none"
       d="m 90.717,33.334 v 13.858 h 5.945 v -2.1 h -3.857 v -3.779 h 2.818 v -2.1 h -2.818 v -3.779 h 3.857 v -2.1 h -5.945" /><path
       id="path52"
       style="fill:#231f20;fill-opacity:1;fill-rule:nonzero;stroke:none"
       d="m 100.186,33.334 h -2.088 v 13.858 h 2.998 l 1.946,-9.954 1.868,9.954 h 2.88 V 33.334 h -2.089 v 8.708 l -1.812,-8.708 h -1.68 l -2.023,8.686 v -8.686" /><path
       id="path54"
       style="fill:#231f20;fill-opacity:1;fill-rule:nonzero;stroke:none"
       d="m 109.657,47.181 h 2.088 V 33.334 h -2.088 z" /><path
       id="path56"
       style="fill:#231f20;fill-opacity:1;fill-rule:nonzero;stroke:none"
       d="m 74.252,19.461 c 1.43,1.484 2.4,2.573 2.912,3.268 0.512,0.694 0.768,1.371 0.768,2.031 0,0.577 -0.157,1.018 -0.469,1.319 -0.313,0.303 -0.686,0.455 -1.119,0.455 -0.535,0 -0.969,-0.196 -1.301,-0.585 -0.184,-0.215 -0.359,-0.545 -0.527,-0.99 l -0.252,0.052 c 0.195,0.899 0.526,1.523 0.993,1.871 0.467,0.35 0.968,0.525 1.503,0.525 0.66,0 1.194,-0.208 1.602,-0.624 0.408,-0.415 0.613,-0.924 0.613,-1.525 0,-0.64 -0.221,-1.257 -0.663,-1.85 -0.442,-0.593 -1.401,-1.649 -2.878,-3.167 h 2.69 c 0.375,0 0.639,0.044 0.792,0.134 0.152,0.09 0.324,0.309 0.516,0.656 l 0.152,-0.071 -0.65,-1.633 h -4.682 v 0.134" /><path
       id="path58"
       style="fill:#231f20;fill-opacity:1;fill-rule:nonzero;stroke:none"
       d="m 84.093,20.492 c 0.215,0.628 0.322,1.538 0.322,2.728 0,0.948 -0.064,1.706 -0.193,2.272 -0.242,1.053 -0.695,1.581 -1.359,1.581 -0.664,0 -1.12,-0.543 -1.366,-1.628 -0.129,-0.577 -0.193,-1.339 -0.193,-2.284 0,-0.885 0.066,-1.594 0.199,-2.125 0.25,-0.991 0.719,-1.487 1.407,-1.487 0.574,0 0.968,0.315 1.183,0.943 z m 0.891,5.485 c 0.394,-0.762 0.592,-1.637 0.592,-2.625 0,-0.777 -0.122,-1.51 -0.364,-2.197 -0.457,-1.293 -1.248,-1.94 -2.373,-1.94 -0.769,0 -1.402,0.35 -1.898,1.049 -0.531,0.746 -0.797,1.76 -0.797,3.041 0,1.008 0.178,1.875 0.533,2.602 0.481,0.988 1.219,1.482 2.215,1.482 0.898,0 1.596,-0.471 2.092,-1.412" /><path
       id="path60"
       style="fill:#231f20;fill-opacity:1;fill-rule:nonzero;stroke:none"
       d="m 88.583,27.333 c 0.002,-0.009 0.003,-0.032 0.003,-0.067 v -7.055 c 0,-0.301 0.081,-0.492 0.241,-0.574 0.161,-0.082 0.462,-0.131 0.901,-0.146 v -0.164 h -3.31 v 0.175 c 0.473,0.024 0.781,0.088 0.926,0.194 0.144,0.105 0.216,0.334 0.216,0.685 v 5.426 c 0,0.187 -0.023,0.33 -0.07,0.428 -0.047,0.097 -0.148,0.146 -0.305,0.146 -0.101,0 -0.233,-0.028 -0.395,-0.085 -0.162,-0.056 -0.313,-0.116 -0.454,-0.178 v 0.164 l 2.15,1.095 h 0.07 c 0.016,-0.019 0.025,-0.034 0.027,-0.044" /><path
       id="path62"
       style="fill:#231f20;fill-opacity:1;fill-rule:nonzero;stroke:none"
       d="m 94.365,22.924 c -0.273,0.672 -0.738,1.008 -1.394,1.008 -0.606,0 -1.008,-0.18 -1.207,-0.539 -0.118,-0.211 -0.176,-0.563 -0.176,-1.055 0,-0.636 0.135,-1.26 0.407,-1.869 0.272,-0.609 0.7,-0.914 1.286,-0.914 0.465,0 0.803,0.198 1.014,0.595 0.211,0.396 0.316,0.86 0.316,1.391 0,0.52 -0.082,0.981 -0.246,1.383 z m 0.63,-2.865 c -0.459,-0.574 -1.056,-0.861 -1.79,-0.861 -0.688,0 -1.313,0.322 -1.878,0.966 -0.564,0.645 -0.847,1.502 -0.847,2.573 0,1.379 0.547,2.562 1.641,3.55 0.977,0.829 2.074,1.243 3.293,1.243 l 0.029,-0.194 C 94.955,27.246 94.534,27.124 94.181,26.97 93.827,26.816 93.512,26.6 93.234,26.323 92.949,26.041 92.682,25.684 92.432,25.25 92.181,24.817 92.01,24.387 91.916,23.961 c 0.242,0.149 0.451,0.258 0.627,0.328 0.312,0.125 0.627,0.188 0.943,0.188 0.621,0 1.143,-0.215 1.565,-0.645 0.422,-0.429 0.633,-1.043 0.633,-1.839 0,-0.715 -0.23,-1.36 -0.689,-1.934" /></g></svg>