<?xml version="1.0" standalone="no"?>
<!DOCTYPE svg PUBLIC "-//W3C//DTD SVG 20010904//EN"
 "http://www.w3.org/TR/2001/REC-SVG-20010904/DTD/svg10.dtd">
<svg version="1.0" xmlns="http://www.w3.org/2000/svg"
 width="428.000000pt" height="942.000000pt" viewBox="0 0 428.000000 942.000000"
 preserveAspectRatio="xMidYMid meet">
<metadata>
Created by potrace 1.16, written by Peter Selinger 2001-2019
</metadata>
<g transform="translate(0.000000,942.000000) scale(0.100000,-0.100000)"
fill="#000000" stroke="none">
<path d="M2339 9247 c35 -11 101 -69 101 -88 0 -6 -12 -1 -26 10 -80 63 -287
90 -436 57 -140 -31 -283 -119 -325 -199 -19 -37 -11 -46 11 -11 10 14 20 23
23 20 3 -2 -4 -18 -16 -35 -28 -39 -51 -105 -51 -145 1 -29 1 -30 15 -12 14
18 15 16 15 -30 l0 -49 22 35 23 35 2 -35 c2 -19 10 -69 18 -110 8 -41 16 -93
17 -114 3 -37 1 -40 -29 -48 -39 -10 -48 -36 -39 -111 14 -116 51 -188 101
-197 26 -5 31 -11 43 -60 12 -54 12 -263 0 -276 -4 -3 -20 2 -37 10 -45 24
-64 20 -85 -18 -30 -56 -66 -83 -153 -114 -45 -17 -101 -43 -125 -60 -27 -19
-80 -39 -147 -55 -138 -35 -193 -69 -332 -207 -110 -109 -190 -209 -360 -450
-40 -58 -97 -133 -126 -167 -57 -67 -61 -78 -38 -110 14 -20 10 -27 -67 -129
-44 -60 -108 -149 -140 -198 -131 -194 -131 -203 6 -471 179 -351 241 -441
520 -760 234 -266 318 -334 469 -379 l87 -27 0 -62 c0 -34 -9 -147 -20 -252
-11 -104 -42 -435 -70 -735 -27 -300 -51 -564 -54 -587 l-3 -43 51 -18 c28
-11 81 -29 118 -41 l67 -22 7 -46 c3 -24 4 -131 1 -236 -6 -212 -6 -214 -92
-471 -93 -279 -112 -426 -80 -612 9 -49 47 -212 86 -363 113 -446 138 -629
119 -871 -7 -85 -19 -183 -26 -218 -16 -73 -18 -121 -4 -142 8 -13 -16 -16
-193 -20 -111 -3 539 -7 1446 -8 1402 -2 1647 0 1647 12 0 20 -22 26 -93 26
l-62 1 37 19 c76 40 90 104 36 165 -39 46 -82 67 -192 98 -54 15 -108 39 -140
61 -57 39 -115 66 -259 121 -54 20 -111 48 -128 62 -104 88 -113 276 -39 818
48 348 54 485 26 625 -9 47 -19 139 -23 206 l-6 120 37 82 c48 106 66 192 55
261 -4 29 -31 118 -59 198 -27 79 -50 153 -50 163 0 10 10 26 21 34 l22 15
-27 108 c-127 512 -262 976 -343 1181 l-45 113 65 142 c36 78 71 160 77 182 7
22 28 70 46 107 26 51 38 94 50 175 18 126 52 266 99 413 38 119 60 234 75
400 13 139 10 158 -46 332 -24 75 -50 164 -58 199 -14 59 -14 65 4 95 11 17
20 47 20 66 0 27 -6 37 -30 52 -17 9 -37 27 -45 39 -7 12 -43 123 -79 248 -80
277 -115 374 -166 460 -68 114 -125 152 -290 193 -80 20 -123 37 -180 73 -41
25 -99 60 -128 77 l-53 31 6 145 c4 103 12 166 27 217 19 65 24 73 50 78 58
13 114 147 106 255 -3 43 -5 45 -35 48 -32 3 -33 5 -33 50 0 26 7 82 15 125 8
43 12 90 9 103 -9 35 4 30 20 -8 l14 -33 1 45 c1 26 -6 56 -15 70 -9 15 -1 10
20 -12 40 -42 50 -26 15 23 -28 39 1 28 30 -12 27 -37 38 -32 18 8 -16 30 -62
76 -87 87 -8 3 9 4 38 2 59 -6 67 -1 20 13 -32 9 -32 9 -5 10 40 1 33 21 -9
21 l-35 0 20 26 c12 15 21 36 21 48 l-1 21 -12 -21 c-14 -25 -53 -74 -59 -74
-2 0 -2 20 0 44 5 54 -24 114 -72 151 -37 28 -114 56 -150 54 -15 -1 -11 -4
13 -12z m-1221 -2714 c25 -79 70 -303 142 -703 36 -202 63 -320 92 -405 31
-93 38 -128 34 -158 -14 -86 -52 -117 -140 -117 -52 0 -113 28 -164 75 -66 59
-208 293 -276 455 -94 224 -176 444 -176 470 0 20 18 51 58 102 84 104 98 115
124 99 21 -13 29 -6 146 118 68 72 127 131 132 131 4 0 17 -30 28 -67z m1840
-280 l57 -117 -3 -191 c-2 -104 2 -242 8 -305 21 -230 23 -306 10 -390 -13
-84 -33 -120 -66 -120 -12 0 -9 8 10 33 35 46 33 82 -13 223 -61 185 -72 248
-78 460 -5 179 4 524 13 524 3 0 30 -53 62 -117z m-626 -3168 c20 -49 42 -107
49 -128 11 -31 17 -37 34 -32 11 3 73 8 137 12 l116 6 26 -29 c48 -54 137
-195 178 -280 62 -128 62 -175 4 -389 -94 -349 -100 -510 -24 -675 106 -230
138 -415 138 -804 l0 -233 -26 -11 c-37 -18 -51 -64 -59 -193 -7 -103 -5 -120
13 -161 14 -33 30 -50 58 -64 21 -11 39 -24 41 -30 4 -14 -155 -20 -688 -29
l-346 -6 5 30 c3 21 -6 52 -28 98 -18 37 -45 107 -60 154 -19 59 -46 114 -84
171 -50 74 -60 97 -77 179 -12 58 -22 155 -26 254 -5 137 -3 176 15 275 12 63
31 198 42 300 11 102 22 199 24 215 3 17 -1 126 -7 243 l-11 214 28 81 c16 45
44 112 63 149 21 40 38 93 43 131 5 35 21 88 35 118 26 56 39 113 50 213 l7
58 122 -7 123 -7 6 39 c3 21 11 84 18 141 7 57 15 99 19 95 4 -4 23 -48 42
-98z"/>
</g>
</svg>
