<?xml version="1.0" standalone="no"?>
<!DOCTYPE svg PUBLIC "-//W3C//DTD SVG 20010904//EN"
 "http://www.w3.org/TR/2001/REC-SVG-20010904/DTD/svg10.dtd">
<svg version="1.0" xmlns="http://www.w3.org/2000/svg"
 width="346.000000pt" height="892.000000pt" viewBox="0 0 346.000000 892.000000"
 preserveAspectRatio="xMidYMid meet">
<metadata>
Created by potrace 1.16, written by Peter Selinger 2001-2019
</metadata>
<g transform="translate(0.000000,892.000000) scale(0.100000,-0.100000)"
fill="#000000" stroke="none">
<path d="M1890 8770 c-8 -5 -25 -10 -37 -10 -34 0 -170 -97 -202 -143 -48 -70
-85 -155 -145 -326 -32 -91 -65 -176 -74 -190 -23 -38 -3 -15 58 64 70 92 73
95 61 63 -5 -14 -33 -64 -62 -109 -28 -45 -60 -107 -71 -138 -22 -65 -28 -177
-10 -206 10 -17 11 -14 6 22 -11 72 22 185 84 288 42 72 41 70 47 64 2 -3 -11
-39 -31 -80 -63 -130 -74 -168 -74 -249 0 -84 17 -131 76 -212 43 -58 57 -58
19 0 -72 108 -71 270 1 380 l17 26 17 -43 c9 -24 24 -47 32 -52 9 -5 19 -28
23 -52 12 -68 44 -144 83 -195 37 -47 37 -47 37 -147 0 -111 -16 -169 -44
-160 -9 3 -59 -21 -114 -54 -54 -33 -146 -78 -205 -101 -315 -125 -350 -181
-382 -625 -15 -215 -28 -330 -50 -442 -10 -54 -18 -99 -16 -100 1 -2 29 -14
62 -27 l59 -24 3 -59 c6 -91 -17 -219 -59 -333 -58 -158 -75 -246 -104 -510
-34 -319 -48 -414 -91 -629 -47 -238 -79 -352 -138 -492 l-35 -87 25 -113 c14
-62 30 -123 36 -134 6 -11 42 -51 79 -90 l67 -70 -19 -99 c-10 -54 -30 -210
-43 -346 -27 -264 -42 -356 -82 -487 -13 -45 -31 -129 -39 -186 -20 -141 -34
-205 -55 -247 -10 -20 -25 -91 -34 -160 -9 -69 -25 -176 -36 -238 -41 -234
-51 -627 -21 -865 20 -159 33 -350 26 -394 -9 -59 -36 -114 -87 -175 -41 -49
-93 -78 -283 -160 -59 -25 -86 -43 -102 -67 -13 -19 -23 -38 -23 -42 0 -5 221
-9 490 -9 l490 0 0 23 c0 13 -11 61 -25 107 -14 46 -25 96 -25 111 0 15 -5 40
-11 56 -6 15 -18 60 -25 98 -32 164 -15 266 132 757 40 135 54 266 54 518 0
129 5 260 11 294 9 50 9 67 -3 96 -9 21 -12 43 -7 55 4 11 30 72 57 135 28 63
62 157 77 208 48 169 85 254 239 557 84 165 165 332 181 370 16 39 32 74 36
78 3 5 23 4 43 -2 44 -12 37 -25 87 164 27 102 38 130 40 105 1 -19 4 -87 8
-150 l6 -115 91 -3 91 -3 11 -52 c45 -203 126 -706 142 -881 11 -123 24 -170
102 -373 45 -117 40 -114 182 -114 107 0 193 20 258 61 26 16 50 25 52 21 8
-12 26 -133 26 -172 0 -23 -7 -42 -19 -53 -30 -28 -118 -56 -205 -67 -129 -16
-121 -32 14 -27 90 4 126 9 164 26 27 12 50 22 51 22 2 0 8 -28 14 -63 15 -89
14 -255 -4 -391 -16 -119 -77 -436 -115 -591 -12 -50 -32 -144 -45 -210 -16
-87 -26 -119 -36 -117 -37 9 -82 -12 -144 -69 -38 -34 -74 -59 -83 -57 -19 4
-19 11 -7 178 6 89 3 129 -18 265 -14 88 -29 185 -33 215 -5 42 -8 50 -14 34
-21 -55 -21 -135 0 -292 21 -159 22 -165 5 -285 -43 -310 -45 -357 -17 -420
l21 -47 425 0 c423 0 424 0 419 21 -9 34 -58 74 -146 119 -110 56 -175 104
-195 143 -10 18 -44 58 -77 90 l-59 59 2 65 c1 35 18 135 37 221 124 546 138
633 139 877 1 281 -22 474 -68 570 -56 116 -77 249 -82 520 -3 127 0 280 5
340 10 114 17 213 27 350 8 124 13 146 31 143 11 -2 19 7 24 27 5 17 35 64 68
105 33 41 63 86 66 99 4 14 22 66 42 115 l36 91 -26 165 c-23 149 -25 187 -22
385 2 121 9 316 16 434 15 276 7 502 -26 695 -19 114 -25 186 -25 301 l0 150
73 28 c39 15 78 31 85 35 9 7 5 40 -18 153 -16 79 -43 256 -60 394 -42 343
-54 391 -122 478 -36 45 -133 93 -268 131 -155 44 -152 42 -202 148 -25 51
-70 135 -101 186 -75 123 -85 145 -47 102 46 -52 186 -278 204 -330 l15 -45 1
46 c0 51 -30 161 -63 224 -11 22 -51 87 -89 143 -79 117 -86 148 -11 45 97
-134 121 -169 142 -211 24 -48 38 -52 21 -7 -14 38 -28 100 -51 235 -21 125
-48 221 -82 284 -14 29 -21 62 -23 111 -3 97 -40 272 -69 321 -13 23 -36 49
-50 58 -14 9 -25 23 -25 31 0 8 -17 32 -37 54 -41 42 -92 62 -178 67 -27 2
-68 6 -90 9 -22 3 -47 1 -55 -5z m479 -1200 c29 -52 67 -120 86 -150 18 -30
32 -56 30 -58 -1 -2 -46 20 -98 48 -88 47 -98 55 -121 103 -14 28 -26 62 -26
75 0 19 12 7 51 -53 27 -42 52 -76 54 -74 5 6 -21 127 -39 178 -35 96 -17 77
63 -69z m78 -239 c32 -16 78 -35 103 -41 25 -6 90 -25 145 -42 249 -76 274
-118 320 -541 13 -124 36 -282 50 -353 14 -71 25 -134 25 -141 0 -6 -26 -17
-57 -23 -141 -29 -216 -51 -286 -83 l-75 -35 -6 52 c-3 28 -8 103 -12 166 -9
149 -18 186 -28 110 -16 -120 -39 -243 -76 -405 -49 -212 -62 -310 -63 -450
-1 -119 6 -151 83 -390 63 -196 106 -349 157 -555 l48 -195 3 83 c5 138 -29
291 -148 662 -87 269 -92 292 -91 415 1 143 65 495 91 495 10 0 22 -196 25
-438 2 -178 6 -215 38 -382 19 -102 53 -264 76 -360 72 -313 77 -430 21 -540
-16 -32 -47 -110 -70 -175 -39 -114 -40 -121 -40 -249 0 -99 4 -137 14 -152
32 -42 74 25 76 121 1 28 5 59 9 69 7 17 8 18 14 3 3 -9 11 -56 18 -103 9 -67
9 -96 -1 -128 -14 -48 -66 -126 -83 -126 -7 0 -136 -16 -287 -36 -332 -43
-472 -56 -482 -46 -4 4 -12 64 -18 132 -12 143 -37 289 -52 307 -17 21 -34 15
-36 -14 -4 -58 -96 -415 -108 -420 -7 -2 -72 16 -146 41 -255 87 -478 130
-643 124 -86 -3 -89 -4 -96 -28 -6 -24 -7 -23 -27 20 -31 65 -27 197 6 208 10
3 11 -8 6 -46 -8 -66 2 -119 26 -132 45 -24 55 1 82 200 12 93 13 137 7 350
-2 92 0 115 25 188 15 45 41 113 57 150 17 37 51 144 75 237 27 102 71 234
111 330 88 215 121 320 138 434 19 122 19 239 0 377 -17 127 -20 140 -69 257
-38 92 -58 192 -50 255 4 37 4 37 -7 7 -6 -16 -11 -70 -11 -120 0 -94 15 -149
87 -309 20 -45 22 -57 10 -53 -8 4 -85 23 -170 44 -117 28 -155 41 -155 53 0
8 6 52 14 97 8 44 22 179 31 300 25 345 50 459 113 526 32 35 85 62 231 122
110 44 216 99 227 116 12 20 23 6 34 -43 6 -29 22 -69 35 -89 27 -42 129 -113
184 -130 35 -10 44 -8 112 26 97 48 230 147 327 244 42 43 78 79 79 80 1 0 28
-12 60 -28z m-1737 -5287 c34 -13 87 -18 213 -22 151 -4 168 -6 161 -21 -4 -9
-9 -81 -12 -160 -4 -115 -2 -145 9 -152 10 -6 11 -9 2 -9 -10 0 -13 -30 -13
-114 0 -138 -26 -296 -76 -466 -111 -378 -118 -411 -119 -592 -2 -181 -6 -198
-54 -198 -19 0 -48 19 -100 65 -40 37 -86 68 -102 72 -29 5 -29 6 -29 73 0 37
-7 130 -15 206 -46 449 -38 791 27 1082 l11 53 41 -8 c67 -13 236 -8 281 9 39
15 38 15 -55 11 -94 -5 -232 15 -253 36 -5 5 -6 42 -2 86 8 85 2 81 85 49z"/>
</g>
</svg>
