<?xml version="1.0" standalone="no"?>
<!DOCTYPE svg PUBLIC "-//W3C//DTD SVG 20010904//EN"
 "http://www.w3.org/TR/2001/REC-SVG-20010904/DTD/svg10.dtd">
<svg version="1.0" xmlns="http://www.w3.org/2000/svg"
 width="1024.000000pt" height="1024.000000pt" viewBox="0 0 1024.000000 1024.000000"
 preserveAspectRatio="xMidYMid meet">

<g transform="translate(0.000000,1024.000000) scale(0.100000,-0.100000)"
fill="#000000" stroke="none">
<path d="M5475 9325 c-186 -33 -412 -126 -512 -210 -21 -17 -52 -41 -69 -53
l-31 -21 -62 25 c-128 52 -278 56 -413 10 -262 -88 -432 -312 -468 -618 -35
-300 124 -574 377 -649 36 -10 43 -17 48 -43 3 -17 12 -76 20 -131 30 -197 97
-392 177 -516 33 -52 35 -60 27 -100 -4 -24 -8 -47 -9 -51 0 -5 -34 -8 -75 -8
-162 0 -225 -59 -434 -405 l-55 -91 -140 -22 c-236 -37 -377 -76 -535 -146
-385 -171 -635 -412 -821 -791 -121 -247 -201 -480 -338 -980 -48 -175 -154
-550 -157 -553 -3 -4 -39 193 -61 338 -14 90 -18 180 -19 420 0 273 2 318 23
435 53 305 119 557 202 770 48 123 203 431 272 542 305 489 692 874 1148 1143
105 62 361 192 402 204 15 4 13 9 -12 36 -74 79 -160 255 -160 326 0 31 -8 29
-125 -27 -273 -130 -607 -343 -807 -516 -105 -91 -168 -151 -293 -277 -613
-618 -997 -1461 -1076 -2361 -13 -145 -6 -557 11 -695 88 -703 306 -1278 694
-1835 491 -703 1213 -1212 2063 -1453 211 -60 186 -62 201 16 34 179 136 412
261 599 128 190 256 316 422 414 76 46 238 111 252 102 14 -9 79 -113 75 -122
-2 -5 -44 -36 -93 -69 -196 -130 -357 -344 -465 -618 -61 -152 -126 -444 -99
-444 5 0 74 -7 152 -17 170 -20 528 -22 697 -4 373 39 683 107 984 216 794
288 1451 788 1898 1443 367 540 566 1059 649 1689 25 194 37 688 20 828 -63
519 -182 930 -392 1348 -342 683 -825 1207 -1469 1595 l-155 93 -12 -103 c-15
-129 -29 -185 -65 -272 -15 -38 -27 -71 -25 -72 2 -2 43 -28 91 -59 233 -146
435 -306 625 -494 258 -256 438 -504 611 -846 114 -225 184 -405 233 -601 l40
-160 101 -12 c138 -15 194 -34 250 -83 76 -67 105 -147 91 -255 -8 -63 -28
-95 -212 -330 l-123 -157 -2 -61 c0 -34 -1 -68 0 -76 3 -58 -55 -416 -98 -600
-91 -386 -279 -799 -512 -1127 -236 -332 -505 -598 -847 -836 l-124 -86 -56
50 c-80 71 -211 159 -342 229 l-114 61 120 -6 c66 -4 147 -11 180 -16 264 -42
432 -2 570 136 158 157 247 347 310 655 4 19 39 48 136 114 72 49 134 99 139
110 4 12 10 46 14 78 6 47 16 67 61 126 49 66 53 76 60 144 6 61 13 82 46 131
61 92 65 175 14 279 l-28 57 72 83 c112 128 147 186 161 266 7 38 11 75 9 81
-3 7 -74 -60 -159 -149 -85 -90 -156 -157 -158 -151 -4 13 399 550 593 791
142 175 170 224 161 274 -8 41 -38 81 -75 100 -14 8 -80 19 -146 26 -66 6
-127 13 -135 15 -13 4 -215 24 -390 40 -52 5 -148 14 -205 20 -116 13 -169 8
-220 -18 -63 -32 -67 -36 -233 -255 -75 -99 -213 -280 -307 -402 -263 -343
-406 -532 -531 -695 -63 -82 -182 -238 -265 -345 -284 -367 -279 -358 -279
-439 0 -60 30 -108 85 -136 39 -19 60 -20 577 -20 l537 0 38 37 38 37 70 -33
70 -34 38 39 c20 21 37 40 37 42 0 3 -8 7 -18 9 -21 6 -415 269 -449 301 -16
14 -23 32 -23 59 0 35 2 39 20 33 27 -8 420 -233 442 -252 19 -17 48 -11 72
16 17 18 16 21 -16 50 -28 26 -302 198 -471 295 -56 32 -80 64 -75 103 5 42
47 42 136 -2 40 -19 75 -35 77 -35 3 0 104 -50 226 -110 l221 -111 39 42 c22
23 39 45 39 48 0 3 -64 51 -142 106 -227 160 -374 271 -392 296 -19 27 -21 80
-4 97 21 21 67 13 121 -22 122 -79 473 -295 489 -301 11 -4 18 0 23 15 4 11
17 28 31 36 l24 16 -22 37 c-12 20 -64 100 -115 179 -151 231 -198 332 -175
370 5 7 25 15 46 19 47 7 63 -7 200 -182 196 -249 278 -389 280 -476 1 -42 -3
-51 -46 -97 l-48 -51 0 -80 0 -80 -49 -48 c-42 -41 -50 -56 -56 -98 -15 -108
-20 -118 -82 -150 -32 -16 -82 -52 -111 -80 l-54 -50 -102 -5 c-87 -5 -110
-10 -171 -39 -122 -58 -129 -59 -388 -53 l-237 5 -1 -74 c-4 -231 19 -337 90
-412 54 -59 101 -69 186 -40 94 33 215 181 280 342 22 54 50 81 86 81 15 0 15
-4 3 -38 -7 -20 -13 -43 -14 -51 0 -29 -75 -188 -117 -253 -85 -130 -182 -188
-311 -188 -126 0 -216 71 -263 207 -19 55 -42 259 -34 299 2 11 6 43 9 72 l5
52 -73 0 c-71 0 -74 -1 -80 -26 -12 -47 -27 -248 -22 -289 5 -37 5 -38 -4 -10
-17 50 -40 206 -40 268 l0 57 -180 0 c-156 0 -187 3 -232 20 -63 24 -58 23
-58 8 0 -14 -137 -267 -188 -346 -25 -40 -38 -52 -50 -47 -9 4 -34 9 -54 12
-21 3 -38 7 -38 10 0 2 35 65 79 141 43 75 101 180 128 233 l50 96 -17 69
c-10 38 -19 60 -19 50 -1 -22 -237 -466 -282 -533 -30 -44 -47 -59 -55 -50 -5
5 76 163 108 209 10 14 63 116 119 225 55 109 107 203 115 209 8 6 26 33 40
60 14 26 43 69 63 94 21 25 100 127 177 228 76 100 161 210 187 245 61 79 117
160 117 169 0 4 -10 10 -22 14 -13 4 -51 36 -85 71 -74 78 -108 92 -195 82
-97 -11 -372 -60 -381 -69 -4 -4 68 -10 160 -15 92 -4 193 -10 223 -14 l55 -6
27 -75 c15 -41 27 -94 27 -118 l1 -43 -31 18 c-17 10 -48 37 -69 60 -30 35
-44 43 -71 43 -60 -1 -221 -27 -344 -56 -146 -34 -138 -37 125 -54 102 -6 188
-14 192 -18 8 -9 28 -117 28 -154 0 -19 -11 -40 -32 -61 l-33 -33 -20 55 -21
56 -44 -2 c-74 -4 -363 -62 -376 -76 -2 -2 67 -12 154 -22 l159 -17 11 -63
c17 -90 16 -97 -24 -123 -38 -25 -39 -25 -65 21 -5 10 -15 15 -21 11 -6 -4
-57 -19 -114 -33 l-103 -27 -70 -109 c-141 -220 -166 -244 -286 -275 -43 -11
-90 -20 -104 -20 -14 -1 -91 -25 -171 -54 l-145 -54 -3 102 c-3 106 25 301 50
353 10 20 32 35 93 59 l80 32 119 168 c66 93 186 269 267 391 82 122 158 230
169 241 22 21 27 21 345 57 72 8 166 19 209 25 74 9 83 8 145 -17 36 -14 115
-50 175 -80 91 -46 112 -53 120 -41 6 8 29 35 50 61 21 26 37 49 35 50 -2 1
-32 16 -67 32 -35 16 -65 32 -68 36 -2 4 5 40 15 81 11 40 22 92 25 113 4 22
13 81 22 130 17 100 18 108 33 215 18 142 22 202 13 196 -12 -7 -85 -125 -139
-224 l-40 -73 -16 116 c-31 219 -100 473 -139 510 -12 12 -1 -338 17 -530 7
-74 32 -479 30 -482 -1 -2 -26 6 -56 16 -30 10 -70 17 -89 16 -59 -5 -203 -26
-212 -31 -5 -3 -6 5 -3 18 10 44 44 303 56 428 20 193 17 658 -4 810 -9 68
-17 127 -17 131 0 18 196 -44 295 -94 99 -49 167 -100 252 -191 135 -143 200
-296 267 -636 19 -96 40 -199 46 -227 l12 -53 35 53 c20 28 56 78 80 109 l44
58 -26 127 c-49 238 -75 322 -136 445 -57 115 -100 179 -180 262 -119 126
-245 207 -402 260 -71 24 -316 86 -327 83 -5 -1 -31 36 -58 83 l-48 86 54 74
c61 84 186 293 196 327 5 14 25 30 52 42 72 32 101 58 127 114 29 62 69 199
91 317 14 71 21 89 46 111 29 25 39 49 21 49 -10 0 8 65 24 91 6 8 26 26 46
40 50 33 76 66 156 199 111 182 145 269 163 413 34 271 -70 575 -293 854 -181
228 -471 404 -777 474 -115 26 -392 34 -505 14z m435 -136 c184 -26 398 -131
543 -268 42 -39 70 -80 45 -66 -7 5 -24 16 -38 25 -45 31 -182 102 -187 97 -2
-3 7 -28 21 -56 14 -28 26 -54 26 -59 0 -5 -17 -1 -37 9 -42 20 -123 41 -122
30 0 -3 43 -37 94 -75 52 -38 120 -96 152 -128 l58 -59 -75 39 c-81 43 -227
95 -300 106 l-44 7 22 -24 c12 -13 49 -45 81 -72 33 -27 58 -51 57 -53 -2 -1
-26 6 -54 17 -44 18 -199 61 -216 61 -10 0 82 -80 142 -124 29 -21 90 -61 135
-88 90 -55 87 -55 -68 -17 -173 44 -265 94 -494 267 -91 69 -188 141 -216 160
l-50 33 90 -6 c91 -6 102 -7 210 -26 59 -10 230 -51 270 -64 15 -5 12 1 -10
20 -42 36 -175 130 -226 159 l-42 24 64 -5 c88 -7 223 -39 286 -68 29 -13 53
-21 53 -18 0 13 -172 153 -243 198 -47 30 -62 51 -29 41 9 -3 55 -10 102 -17z
m-1361 -259 c-40 -32 -123 -151 -134 -190 l-7 -25 23 22 c29 27 100 58 178 78
85 22 97 20 70 -7 -12 -13 -70 -97 -129 -188 -97 -147 -171 -257 -207 -308
-10 -14 -11 -12 -4 13 36 121 93 256 127 302 l24 32 -47 -22 c-74 -35 -89 -44
-150 -94 -31 -25 -53 -38 -50 -29 4 9 14 42 23 74 16 55 75 184 96 210 6 6 8
12 5 12 -19 0 -127 -55 -159 -81 -47 -37 -48 -30 -3 31 92 125 212 195 345
199 l35 1 -36 -30z m640 -383 c47 -42 120 -100 161 -127 41 -28 71 -50 67 -50
-20 0 -121 47 -183 86 -75 46 -124 98 -180 191 -45 76 -43 85 7 26 23 -26 80
-83 128 -126z m291 73 c36 -13 172 -65 302 -116 216 -85 365 -133 458 -148 19
-3 51 -8 70 -12 19 -3 60 -9 90 -13 l55 -6 -85 -21 c-63 -15 -123 -21 -230
-23 -241 -3 -350 28 -505 147 -89 68 -271 238 -240 224 11 -5 49 -20 85 -32z
m-583 -332 c30 -37 82 -93 115 -123 32 -30 56 -55 52 -55 -21 0 -130 78 -170
123 -46 51 -94 141 -108 202 -5 23 1 17 25 -25 17 -30 56 -85 86 -122z m1989
20 c-17 -129 -129 -275 -271 -354 -66 -37 -243 -103 -275 -103 -8 0 26 21 75
47 244 128 405 278 456 425 7 20 15 37 17 37 3 0 1 -24 -2 -52z m-337 -174
c-27 -33 -132 -107 -212 -149 -114 -60 -252 -98 -397 -110 l-65 -5 100 34
c154 52 380 143 485 197 109 55 107 54 89 33z m-1560 -139 c53 -49 91 -132
153 -337 29 -98 55 -178 58 -178 3 0 43 64 89 143 46 78 85 143 86 144 1 2 51
-4 111 -13 178 -27 658 -20 850 12 189 31 336 86 458 169 l39 26 -7 -75 c-8
-90 -34 -199 -77 -317 -34 -96 -27 -90 -164 -141 -44 -16 -90 -38 -102 -49
-38 -37 -47 -106 -58 -423 -3 -90 -10 -165 -16 -172 -6 -7 -35 -18 -66 -25
l-55 -13 -33 37 c-20 22 -43 37 -57 37 -13 0 -48 7 -78 15 -30 8 -56 12 -58
10 -2 -2 11 -30 28 -62 91 -162 96 -179 54 -189 -43 -11 -252 15 -346 42 -10
3 -18 1 -18 -4 0 -12 91 -52 210 -91 52 -18 106 -38 118 -45 l24 -13 -25 -29
c-23 -26 -31 -29 -84 -27 -32 1 -84 10 -116 21 -31 10 -57 17 -57 14 0 -2 9
-17 21 -33 28 -40 102 -89 134 -89 l27 0 -22 -37 c-74 -127 -133 -169 -222
-158 -122 15 -239 79 -369 202 -82 77 -321 345 -423 472 -37 47 -72 90 -76 95
-23 24 96 -380 172 -583 21 -57 36 -107 32 -110 -11 -12 -484 496 -484 520 0
6 20 81 44 167 25 86 54 195 66 242 12 46 25 91 29 99 6 10 33 -20 96 -103 48
-65 89 -116 90 -114 6 6 35 227 35 265 0 35 0 36 -20 18 -18 -16 -21 -16 -43
-2 -44 28 -123 112 -161 168 -105 158 -103 358 5 469 42 44 108 79 146 80 13
0 40 -16 62 -35z m-546 -1282 c125 -135 340 -399 463 -568 267 -367 534 -852
713 -1297 l49 -123 -12 -59 -12 -59 -16 34 c-9 19 -30 68 -48 109 -54 124
-233 490 -305 622 -240 437 -551 885 -872 1255 -49 56 -53 65 -42 85 13 25 30
48 35 48 2 0 23 -21 47 -47z m-47 -193 c288 -345 430 -541 641 -880 239 -383
556 -1039 571 -1180 7 -69 -9 -44 -86 140 -158 374 -324 691 -552 1055 -54 86
-92 143 -214 320 -53 76 -290 382 -377 485 -85 102 -95 118 -86 138 6 12 13
21 17 20 4 -2 43 -46 86 -98z m-44 -141 c371 -444 717 -974 947 -1454 129
-269 274 -623 269 -657 -6 -41 -20 -21 -65 89 -212 518 -377 838 -648 1253
-148 228 -299 431 -605 817 -37 46 -40 54 -30 74 l12 22 17 -20 c9 -12 55 -68
103 -124z m-113 -56 c223 -276 457 -592 572 -774 285 -451 435 -742 612 -1189
58 -147 77 -213 67 -231 -12 -18 -11 -19 -54 91 -140 355 -329 748 -486 1010
-159 266 -394 611 -540 796 -103 129 -270 346 -270 349 0 11 13 35 20 35 4 0
40 -39 79 -87z m-10 -313 c191 -238 423 -571 601 -865 108 -176 316 -593 400
-800 79 -195 150 -389 150 -408 0 -7 -16 -29 -35 -49 l-35 -37 -112 65 c-145
85 -350 187 -508 254 -69 29 -128 55 -132 59 -9 8 13 464 33 665 5 54 9 117 9
139 l0 41 -66 -64 c-36 -36 -147 -153 -247 -260 -100 -107 -203 -217 -228
-244 l-47 -50 19 85 c61 278 83 424 82 559 0 106 -5 152 -22 215 -25 93 -66
184 -112 252 -37 53 -128 153 -140 153 -4 0 -3 -15 1 -32 29 -108 39 -430 20
-633 -6 -60 -12 -111 -14 -113 -2 -2 -45 17 -95 42 -50 25 -95 46 -100 46 -5
0 2 -28 15 -62 55 -139 144 -480 144 -551 0 -20 -1 -20 -17 3 -59 88 -192 256
-250 316 -69 72 -216 194 -234 194 -5 0 -7 -10 -4 -22 3 -13 14 -68 25 -123
10 -55 30 -148 44 -206 14 -59 46 -205 70 -325 25 -121 63 -307 86 -414 22
-107 40 -202 40 -211 0 -14 -29 -17 -227 -22 -132 -4 -266 -13 -318 -22 -117
-21 -110 -19 -113 -30 -3 -9 36 -21 308 -96 72 -20 114 -35 100 -37 -70 -8
-290 -59 -404 -94 -174 -53 -316 -108 -465 -179 -68 -32 -125 -58 -126 -57 -1
2 -19 37 -39 79 -42 89 -44 82 50 244 101 175 206 317 303 408 77 72 203 169
245 189 37 16 32 24 -16 32 -24 3 -72 10 -108 16 -91 14 -290 37 -382 46 l-78
6 7 27 c34 139 37 145 80 153 65 11 297 28 442 33 73 2 135 5 136 7 2 2 33
138 70 303 36 165 75 334 86 377 31 123 55 111 -223 104 -134 -4 -260 -9 -280
-12 -48 -6 -48 -4 -2 133 45 137 138 332 211 442 67 102 219 255 323 327 71
49 186 111 275 149 47 20 180 67 174 61 -2 -2 -53 -29 -113 -60 -154 -80 -151
-74 -65 -113 63 -29 74 -31 88 -19 24 22 291 154 405 201 l100 42 49 -56 c27
-31 102 -121 166 -201z m1715 -92 c12 -57 16 -647 6 -778 -15 -193 -39 -380
-71 -554 -16 -88 -30 -160 -31 -161 -2 -1 -22 -7 -45 -12 -41 -10 -42 -10 -32
14 26 70 77 377 104 633 18 165 34 525 35 743 0 118 3 147 14 147 8 0 17 -15
20 -32z m89 0 c34 -134 42 -767 13 -998 -19 -160 -54 -401 -64 -450 -6 -26
-14 -36 -30 -38 -12 -2 -22 0 -22 4 0 5 13 89 29 188 52 317 65 479 65 836 1
179 -3 360 -7 403 -5 46 -4 77 1 77 6 0 12 -10 15 -22z m87 0 c0 -2 7 -37 16
-78 17 -83 32 -249 40 -445 7 -161 -17 -501 -53 -757 -22 -160 -29 -187 -45
-191 -10 -3 -20 -2 -21 1 -2 4 4 57 14 117 10 61 28 198 40 305 33 299 29 775
-7 1013 -4 23 -2 37 5 37 6 0 11 -1 11 -2z m-413 -255 l36 -17 -7 -175 c-8
-201 -13 -279 -22 -371 l-6 -65 -25 55 c-14 30 -79 164 -145 298 -66 134 -118
245 -116 247 2 2 35 13 73 24 88 25 166 26 212 4z m2742 -403 c223 -22 419
-45 434 -52 56 -22 9 -27 -118 -13 -132 14 -299 31 -616 60 -167 16 -179 16
-213 0 -21 -10 -49 -34 -64 -54 -15 -20 -130 -170 -257 -335 -126 -164 -272
-353 -323 -420 -51 -66 -127 -164 -167 -216 -41 -52 -140 -180 -220 -285 -80
-104 -204 -264 -275 -355 -221 -281 -260 -333 -260 -342 0 -4 -4 -8 -10 -8
-19 0 -10 45 17 85 26 38 68 94 463 605 95 124 264 342 374 485 271 353 485
631 573 745 88 113 126 140 202 140 30 0 237 -18 460 -40z m-5473 -302 c-3
-13 -13 -60 -23 -105 -9 -46 -20 -83 -23 -83 -4 0 -14 27 -23 59 -19 67 -61
110 -132 135 -39 14 -36 14 84 15 123 1 123 1 117 -21z m-306 7 c0 -3 -22 -19
-50 -36 -33 -20 -68 -56 -105 -107 -58 -81 -64 -82 -41 -11 8 24 22 70 31 102
l16 57 74 0 c41 0 75 -2 75 -5z m81 -147 c12 -10 33 -18 48 -18 42 0 44 -11 9
-47 l-32 -33 18 -35 c22 -41 18 -48 -31 -52 -26 -2 -47 -13 -74 -39 l-36 -36
-31 33 c-19 20 -43 34 -68 38 l-37 6 31 32 c37 37 39 51 12 86 -23 29 -22 29
51 41 54 9 95 59 106 126 l8 55 3 -70 c2 -57 6 -73 23 -87z m153 -185 c-7 -32
-19 -86 -25 -120 l-12 -63 -106 0 -106 1 60 31 c77 39 87 48 148 136 28 39 52
72 53 72 1 0 -4 -26 -12 -57z m-438 -54 c16 -58 19 -61 75 -90 32 -16 65 -29
73 -29 17 0 26 21 26 61 0 16 4 29 9 29 7 0 4 -88 -3 -97 -4 -5 -258 -18 -261
-13 -6 11 47 210 55 205 5 -3 17 -33 26 -66z m2474 -1082 c0 -2 -13 -31 -30
-65 -121 -251 -116 -818 10 -1086 30 -62 78 -116 104 -116 22 0 56 31 77 72
37 72 49 161 49 361 l0 187 24 0 c30 0 34 -29 36 -261 1 -203 -13 -289 -60
-363 -115 -181 -300 -59 -379 249 -33 130 -62 358 -61 474 3 214 57 489 101
517 17 10 129 37 129 31z m-466 -120 c-14 -52 -40 -182 -49 -247 -35 -245 2
-586 95 -860 21 -63 37 -116 36 -118 -2 -1 -66 3 -142 9 -202 17 -482 6 -669
-26 -82 -14 -158 -28 -169 -31 -22 -7 -28 -19 72 136 106 164 172 256 402 558
19 26 31 44 25 40 -478 -289 -814 -497 -974 -604 l-94 -63 -22 33 -23 33 38
109 c47 134 99 256 150 352 22 39 37 72 35 72 -30 0 -427 -196 -473 -233 -16
-13 -9 -20 -131 147 -56 76 -100 144 -98 150 2 6 68 55 148 109 163 110 359
212 497 257 175 56 586 149 601 134 2 -2 -15 -35 -38 -74 -60 -100 -151 -272
-143 -268 4 2 70 41 147 87 176 105 311 177 445 237 111 49 330 125 342 118 3
-2 0 -28 -8 -57z m126 41 c0 -7 -7 -47 -16 -88 -52 -246 -53 -553 -4 -810 17
-88 61 -248 86 -311 32 -83 12 -73 -30 14 -78 163 -125 380 -133 613 -8 213 9
369 58 557 9 34 39 54 39 25z m1378 -141 c-22 -62 -166 -335 -255 -482 -67
-111 -96 -151 -112 -153 -22 -4 -22 -3 3 37 67 105 186 321 257 466 59 120 84
161 98 162 18 1 18 -2 9 -30z m-229 -199 c-102 -205 -280 -478 -310 -478 -11
0 29 72 144 260 83 133 195 300 204 300 2 0 -15 -37 -38 -82z m589 -643 c23
-57 42 -110 42 -117 0 -10 -16 -12 -57 -9 l-58 3 -24 49 c-13 27 -45 72 -71
101 l-48 53 52 11 c28 7 67 12 86 13 l35 1 43 -105z m-480 61 c111 -30 216
-122 248 -218 38 -116 -20 -274 -125 -336 -41 -24 -56 -27 -137 -27 -74 0
-100 4 -141 23 l-50 24 -1 56 c-1 102 -59 199 -156 263 -34 21 -65 40 -70 42
-6 2 2 17 17 33 15 16 27 32 27 36 0 4 24 24 54 44 103 68 222 89 334 60z
m691 -391 c136 -48 234 -98 362 -184 104 -71 186 -138 178 -145 -2 -2 -44 -26
-92 -54 l-88 -50 -85 64 c-141 106 -316 182 -515 222 l-85 17 17 40 c10 22 23
67 30 101 l12 61 81 -18 c45 -9 128 -34 185 -54z"/>
<path d="M4893 7910 c-33 -20 -76 -78 -88 -119 -6 -19 0 -15 30 17 20 23 46
44 57 48 44 14 97 -82 82 -149 -6 -30 -7 -31 -15 -9 -6 16 -16 22 -37 22 -37
0 -62 -28 -69 -78 -6 -46 10 -81 67 -147 30 -35 40 -42 40 -27 0 11 11 64 25
117 41 155 42 200 8 264 -38 74 -59 86 -100 61z"/>
<path d="M5903 7685 c-178 -18 -187 -20 -128 -28 236 -33 242 -35 297 -116 33
-46 28 -61 -19 -61 -25 0 -23 -20 5 -53 8 -9 13 -19 10 -22 -8 -8 -131 32
-229 75 -69 30 -87 34 -79 21 5 -10 16 -23 24 -31 9 -7 36 -41 61 -76 79 -110
158 -135 307 -100 70 16 100 35 137 86 28 39 29 39 46 20 24 -26 30 -25 55 10
20 28 20 31 4 55 -33 50 -305 236 -341 234 -10 -1 -77 -7 -150 -14z"/>
<path d="M3920 6161 c-126 -49 -294 -139 -405 -216 -195 -137 -215 -176 -25
-50 69 45 215 129 325 185 257 132 279 149 105 81z"/>
<path d="M3215 5990 c-57 -41 -65 -50 -49 -56 10 -4 40 -22 67 -41 26 -18 49
-33 52 -33 3 0 40 26 81 58 l74 57 -67 33 c-37 17 -72 32 -78 32 -6 0 -42 -22
-80 -50z"/>
<path d="M3006 5809 c-42 -44 -76 -84 -76 -87 0 -11 201 -55 209 -45 4 4 29
36 54 69 l46 61 -22 21 c-26 24 -100 62 -121 62 -7 0 -48 -36 -90 -81z"/>
<path d="M3238 5691 c-20 -42 -68 -125 -105 -186 -38 -60 -83 -135 -100 -166
l-32 -56 90 44 c153 75 201 136 213 278 4 48 -9 144 -23 156 -3 3 -23 -28 -43
-70z"/>
<path d="M2836 5574 c-26 -47 -46 -86 -45 -88 2 -1 45 -10 94 -19 50 -9 99
-19 111 -22 17 -5 23 0 33 22 6 16 30 56 51 88 l40 60 -92 22 c-142 34 -135
36 -192 -63z"/>
<path d="M2751 5398 c-5 -13 -16 -41 -25 -62 -9 -22 -15 -40 -13 -42 4 -4 199
-35 202 -32 8 10 65 131 62 134 -6 6 -134 24 -175 24 -35 0 -44 -4 -51 -22z"/>
<path d="M4087 7714 c-3 -3 -54 -27 -114 -53 -59 -26 -147 -68 -195 -95 l-87
-47 14 -33 c8 -17 43 -88 79 -157 36 -68 109 -210 163 -315 l96 -191 50 75
c59 88 141 153 225 179 31 9 58 18 59 18 2 1 -15 42 -37 91 -54 124 -130 404
-130 483 0 15 -9 22 -35 27 -19 3 -38 10 -41 15 -6 10 -38 12 -47 3z"/>
<path d="M6981 7431 c-24 -41 -69 -96 -110 -133 -77 -70 -73 -61 -165 -393
-20 -71 -50 -158 -66 -192 -34 -73 -104 -152 -158 -178 -32 -16 -46 -33 -80
-100 -23 -45 -66 -118 -96 -164 -33 -50 -50 -84 -43 -87 85 -31 234 -71 240
-65 10 10 64 103 279 486 100 176 220 388 268 470 48 83 106 185 130 229 l43
79 -24 18 c-39 30 -154 99 -166 99 -6 0 -29 -31 -52 -69z"/>
<path d="M3103 7078 c-84 -78 -192 -191 -288 -302 l-60 -68 60 -54 c33 -30 92
-80 130 -111 39 -32 97 -81 131 -110 l61 -53 96 45 c91 42 342 125 380 125 9
0 17 3 17 6 0 21 -426 594 -442 594 -3 0 -42 -33 -85 -72z"/>
<path d="M7565 6868 c-66 -78 -138 -162 -160 -188 -22 -25 -86 -102 -141 -171
-56 -68 -151 -183 -210 -255 -60 -72 -137 -165 -171 -206 l-62 -76 77 -65 c42
-36 90 -79 106 -96 l29 -30 32 27 c18 15 59 48 91 73 33 25 113 88 179 140
229 182 550 435 638 503 l87 68 -19 27 c-33 46 -235 273 -297 333 l-59 57
-120 -141z"/>
<path d="M2389 6093 c-17 -37 -39 -86 -49 -108 -22 -50 -103 -273 -123 -342
l-16 -52 57 -16 c31 -9 65 -18 75 -21 11 -3 20 1 24 13 13 34 115 208 161 273
25 36 67 89 94 118 26 30 46 57 43 61 -3 6 -176 111 -228 138 -4 3 -21 -26
-38 -64z"/>
<path d="M7820 5824 c-283 -140 -537 -265 -563 -276 -26 -12 -46 -26 -43 -32
2 -6 21 -51 41 -101 20 -49 39 -97 43 -106 6 -15 14 -15 92 2 47 10 114 23
150 29 63 11 67 13 128 80 40 44 82 78 116 95 91 44 149 47 440 20 144 -14
273 -27 289 -30 31 -5 31 -13 0 110 -29 116 -158 464 -173 465 -3 0 -237 -115
-520 -256z"/>
<path d="M2151 5404 c-23 -84 -51 -294 -53 -391 -2 -109 5 -139 17 -76 8 43
97 291 143 401 l31 73 -25 9 c-14 6 -43 13 -64 16 -38 6 -39 6 -49 -32z"/>
<path d="M7358 5050 c2 -16 5 -30 6 -30 1 0 12 14 24 30 l23 30 -29 0 c-26 0
-28 -3 -24 -30z"/>
<path d="M5918 4183 c12 -2 30 -2 40 0 9 3 -1 5 -23 4 -22 0 -30 -2 -17 -4z"/>
<path d="M8549 4022 c-20 -29 -25 -45 -21 -75 2 -20 7 -39 11 -42 7 -4 44 145
38 151 -1 1 -14 -14 -28 -34z"/>
</g>
</svg>
